%TF.GenerationSoftware,KiCad,Pcbnew,6.0.11+dfsg-1*%
%TF.CreationDate,2023-07-20T16:39:38+03:00*%
%TF.ProjectId,usb_display,7573625f-6469-4737-906c-61792e6b6963,rev?*%
%TF.SameCoordinates,Original*%
%TF.FileFunction,Soldermask,Top*%
%TF.FilePolarity,Negative*%
%FSLAX46Y46*%
G04 Gerber Fmt 4.6, Leading zero omitted, Abs format (unit mm)*
G04 Created by KiCad (PCBNEW 6.0.11+dfsg-1) date 2023-07-20 16:39:38*
%MOMM*%
%LPD*%
G01*
G04 APERTURE LIST*
G04 Aperture macros list*
%AMRoundRect*
0 Rectangle with rounded corners*
0 $1 Rounding radius*
0 $2 $3 $4 $5 $6 $7 $8 $9 X,Y pos of 4 corners*
0 Add a 4 corners polygon primitive as box body*
4,1,4,$2,$3,$4,$5,$6,$7,$8,$9,$2,$3,0*
0 Add four circle primitives for the rounded corners*
1,1,$1+$1,$2,$3*
1,1,$1+$1,$4,$5*
1,1,$1+$1,$6,$7*
1,1,$1+$1,$8,$9*
0 Add four rect primitives between the rounded corners*
20,1,$1+$1,$2,$3,$4,$5,0*
20,1,$1+$1,$4,$5,$6,$7,0*
20,1,$1+$1,$6,$7,$8,$9,0*
20,1,$1+$1,$8,$9,$2,$3,0*%
G04 Aperture macros list end*
%ADD10RoundRect,0.225000X-0.250000X0.225000X-0.250000X-0.225000X0.250000X-0.225000X0.250000X0.225000X0*%
%ADD11C,2.000000*%
%ADD12RoundRect,0.225000X-0.225000X-0.250000X0.225000X-0.250000X0.225000X0.250000X-0.225000X0.250000X0*%
%ADD13RoundRect,0.200000X-0.275000X0.200000X-0.275000X-0.200000X0.275000X-0.200000X0.275000X0.200000X0*%
%ADD14RoundRect,0.225000X0.225000X0.250000X-0.225000X0.250000X-0.225000X-0.250000X0.225000X-0.250000X0*%
%ADD15RoundRect,0.200000X-0.200000X-0.275000X0.200000X-0.275000X0.200000X0.275000X-0.200000X0.275000X0*%
%ADD16RoundRect,0.200000X0.200000X0.275000X-0.200000X0.275000X-0.200000X-0.275000X0.200000X-0.275000X0*%
%ADD17R,1.700000X1.700000*%
%ADD18O,1.700000X1.700000*%
%ADD19R,1.500000X1.050000*%
%ADD20O,1.500000X1.050000*%
%ADD21R,1.500000X2.000000*%
%ADD22R,3.800000X2.000000*%
%ADD23C,0.650000*%
%ADD24R,1.450000X0.600000*%
%ADD25R,1.450000X0.300000*%
%ADD26O,2.100000X1.000000*%
%ADD27O,1.600000X1.000000*%
%ADD28RoundRect,0.075000X-0.725000X-0.075000X0.725000X-0.075000X0.725000X0.075000X-0.725000X0.075000X0*%
%ADD29RoundRect,0.075000X-0.075000X-0.725000X0.075000X-0.725000X0.075000X0.725000X-0.075000X0.725000X0*%
%ADD30R,0.600000X1.450000*%
%ADD31R,0.300000X1.450000*%
%ADD32O,1.000000X1.600000*%
%ADD33O,1.000000X2.100000*%
%ADD34R,2.200000X2.200000*%
%ADD35O,2.200000X2.200000*%
%ADD36RoundRect,0.150000X-0.825000X-0.150000X0.825000X-0.150000X0.825000X0.150000X-0.825000X0.150000X0*%
%ADD37RoundRect,0.150000X0.825000X0.150000X-0.825000X0.150000X-0.825000X-0.150000X0.825000X-0.150000X0*%
%ADD38RoundRect,0.225000X0.250000X-0.225000X0.250000X0.225000X-0.250000X0.225000X-0.250000X-0.225000X0*%
%ADD39C,1.778000*%
%ADD40C,2.286000*%
%ADD41C,2.400000*%
%ADD42O,2.400000X2.400000*%
%ADD43R,1.600000X1.600000*%
%ADD44C,1.600000*%
%ADD45C,1.500000*%
G04 APERTURE END LIST*
D10*
%TO.C,C26*%
X85430000Y-80905000D03*
X85430000Y-82455000D03*
%TD*%
D11*
%TO.C,SW3*%
X90520000Y-111510000D03*
X97020000Y-111510000D03*
X97020000Y-116010000D03*
X90520000Y-116010000D03*
%TD*%
D12*
%TO.C,C18*%
X133015000Y-96260000D03*
X134565000Y-96260000D03*
%TD*%
D13*
%TO.C,R5*%
X79790000Y-96745000D03*
X79790000Y-98395000D03*
%TD*%
D14*
%TO.C,C2*%
X61385000Y-70640000D03*
X59835000Y-70640000D03*
%TD*%
D11*
%TO.C,SW8*%
X78450000Y-132440000D03*
X84950000Y-132440000D03*
X78450000Y-136940000D03*
X84950000Y-136940000D03*
%TD*%
D10*
%TO.C,C14*%
X138050000Y-53835000D03*
X138050000Y-55385000D03*
%TD*%
D15*
%TO.C,R17*%
X125545000Y-89730000D03*
X127195000Y-89730000D03*
%TD*%
D10*
%TO.C,C12*%
X142890000Y-66425000D03*
X142890000Y-67975000D03*
%TD*%
D16*
%TO.C,R15*%
X102045000Y-76630000D03*
X100395000Y-76630000D03*
%TD*%
D14*
%TO.C,C23*%
X67425000Y-77600000D03*
X65875000Y-77600000D03*
%TD*%
D13*
%TO.C,R13*%
X138400000Y-59045000D03*
X138400000Y-60695000D03*
%TD*%
D15*
%TO.C,R29*%
X104395000Y-75930000D03*
X106045000Y-75930000D03*
%TD*%
D17*
%TO.C,J4*%
X55405000Y-97945000D03*
D18*
X52865000Y-97945000D03*
X55405000Y-95405000D03*
X52865000Y-95405000D03*
X55405000Y-92865000D03*
X52865000Y-92865000D03*
X55405000Y-90325000D03*
X52865000Y-90325000D03*
X55405000Y-87785000D03*
X52865000Y-87785000D03*
X55405000Y-85245000D03*
X52865000Y-85245000D03*
X55405000Y-82705000D03*
X52865000Y-82705000D03*
X55405000Y-80165000D03*
X52865000Y-80165000D03*
X55405000Y-77625000D03*
X52865000Y-77625000D03*
X55405000Y-75085000D03*
X52865000Y-75085000D03*
X55405000Y-72545000D03*
X52865000Y-72545000D03*
X55405000Y-70005000D03*
X52865000Y-70005000D03*
X55405000Y-67465000D03*
X52865000Y-67465000D03*
X55405000Y-64925000D03*
X52865000Y-64925000D03*
X55405000Y-62385000D03*
X52865000Y-62385000D03*
X55405000Y-59845000D03*
X52865000Y-59845000D03*
X55405000Y-57305000D03*
X52865000Y-57305000D03*
%TD*%
D11*
%TO.C,SW4*%
X102570000Y-111530000D03*
X109070000Y-111530000D03*
X102570000Y-116030000D03*
X109070000Y-116030000D03*
%TD*%
D19*
%TO.C,Q3*%
X108030000Y-76040000D03*
D20*
X108030000Y-77310000D03*
X108030000Y-78580000D03*
%TD*%
D21*
%TO.C,Q5*%
X108510000Y-72680000D03*
X110810000Y-72680000D03*
X113110000Y-72680000D03*
D22*
X110810000Y-66380000D03*
%TD*%
D23*
%TO.C,J5*%
X144380000Y-57050000D03*
X144380000Y-62830000D03*
D24*
X142935000Y-63190000D03*
X142935000Y-62390000D03*
D25*
X142935000Y-61190000D03*
X142935000Y-60190000D03*
X142935000Y-59690000D03*
X142935000Y-58690000D03*
D24*
X142935000Y-57490000D03*
X142935000Y-56690000D03*
X142935000Y-56690000D03*
X142935000Y-57490000D03*
D25*
X142935000Y-58190000D03*
X142935000Y-59190000D03*
X142935000Y-60690000D03*
X142935000Y-61690000D03*
D24*
X142935000Y-62390000D03*
X142935000Y-63190000D03*
D26*
X143850000Y-55620000D03*
D27*
X148030000Y-64260000D03*
X148030000Y-55620000D03*
D26*
X143850000Y-64260000D03*
%TD*%
D11*
%TO.C,SW12*%
X102500000Y-142740000D03*
X109000000Y-142740000D03*
X109000000Y-147240000D03*
X102500000Y-147240000D03*
%TD*%
D16*
%TO.C,R27*%
X91305000Y-61250000D03*
X89655000Y-61250000D03*
%TD*%
D11*
%TO.C,SW15*%
X141980000Y-128420000D03*
X148480000Y-128420000D03*
X141980000Y-132920000D03*
X148480000Y-132920000D03*
%TD*%
D13*
%TO.C,R6*%
X81990000Y-96745000D03*
X81990000Y-98395000D03*
%TD*%
D28*
%TO.C,U1*%
X69605000Y-67600000D03*
X69605000Y-68100000D03*
X69605000Y-68600000D03*
X69605000Y-69100000D03*
X69605000Y-69600000D03*
X69605000Y-70100000D03*
X69605000Y-70600000D03*
X69605000Y-71100000D03*
X69605000Y-71600000D03*
X69605000Y-72100000D03*
X69605000Y-72600000D03*
X69605000Y-73100000D03*
X69605000Y-73600000D03*
X69605000Y-74100000D03*
X69605000Y-74600000D03*
X69605000Y-75100000D03*
X69605000Y-75600000D03*
X69605000Y-76100000D03*
X69605000Y-76600000D03*
X69605000Y-77100000D03*
X69605000Y-77600000D03*
X69605000Y-78100000D03*
X69605000Y-78600000D03*
X69605000Y-79100000D03*
X69605000Y-79600000D03*
D29*
X71280000Y-81275000D03*
X71780000Y-81275000D03*
X72280000Y-81275000D03*
X72780000Y-81275000D03*
X73280000Y-81275000D03*
X73780000Y-81275000D03*
X74280000Y-81275000D03*
X74780000Y-81275000D03*
X75280000Y-81275000D03*
X75780000Y-81275000D03*
X76280000Y-81275000D03*
X76780000Y-81275000D03*
X77280000Y-81275000D03*
X77780000Y-81275000D03*
X78280000Y-81275000D03*
X78780000Y-81275000D03*
X79280000Y-81275000D03*
X79780000Y-81275000D03*
X80280000Y-81275000D03*
X80780000Y-81275000D03*
X81280000Y-81275000D03*
X81780000Y-81275000D03*
X82280000Y-81275000D03*
X82780000Y-81275000D03*
X83280000Y-81275000D03*
D28*
X84955000Y-79600000D03*
X84955000Y-79100000D03*
X84955000Y-78600000D03*
X84955000Y-78100000D03*
X84955000Y-77600000D03*
X84955000Y-77100000D03*
X84955000Y-76600000D03*
X84955000Y-76100000D03*
X84955000Y-75600000D03*
X84955000Y-75100000D03*
X84955000Y-74600000D03*
X84955000Y-74100000D03*
X84955000Y-73600000D03*
X84955000Y-73100000D03*
X84955000Y-72600000D03*
X84955000Y-72100000D03*
X84955000Y-71600000D03*
X84955000Y-71100000D03*
X84955000Y-70600000D03*
X84955000Y-70100000D03*
X84955000Y-69600000D03*
X84955000Y-69100000D03*
X84955000Y-68600000D03*
X84955000Y-68100000D03*
X84955000Y-67600000D03*
D29*
X83280000Y-65925000D03*
X82780000Y-65925000D03*
X82280000Y-65925000D03*
X81780000Y-65925000D03*
X81280000Y-65925000D03*
X80780000Y-65925000D03*
X80280000Y-65925000D03*
X79780000Y-65925000D03*
X79280000Y-65925000D03*
X78780000Y-65925000D03*
X78280000Y-65925000D03*
X77780000Y-65925000D03*
X77280000Y-65925000D03*
X76780000Y-65925000D03*
X76280000Y-65925000D03*
X75780000Y-65925000D03*
X75280000Y-65925000D03*
X74780000Y-65925000D03*
X74280000Y-65925000D03*
X73780000Y-65925000D03*
X73280000Y-65925000D03*
X72780000Y-65925000D03*
X72280000Y-65925000D03*
X71780000Y-65925000D03*
X71280000Y-65925000D03*
%TD*%
D17*
%TO.C,J1*%
X98890000Y-52460000D03*
D18*
X96350000Y-52460000D03*
X93810000Y-52460000D03*
X91270000Y-52460000D03*
%TD*%
D11*
%TO.C,SW9*%
X96980000Y-132420000D03*
X90480000Y-132420000D03*
X96980000Y-136920000D03*
X90480000Y-136920000D03*
%TD*%
D14*
%TO.C,C22*%
X92705000Y-56710000D03*
X91155000Y-56710000D03*
%TD*%
D17*
%TO.C,J12*%
X84845000Y-52170000D03*
D18*
X87385000Y-52170000D03*
%TD*%
D11*
%TO.C,SW2*%
X78470000Y-111530000D03*
X84970000Y-111530000D03*
X84970000Y-116030000D03*
X78470000Y-116030000D03*
%TD*%
%TO.C,SW13*%
X136420000Y-118520000D03*
X129920000Y-118520000D03*
X129920000Y-123020000D03*
X136420000Y-123020000D03*
%TD*%
D12*
%TO.C,C27*%
X67280000Y-108660000D03*
X68830000Y-108660000D03*
%TD*%
D10*
%TO.C,C4*%
X59970000Y-54855000D03*
X59970000Y-56405000D03*
%TD*%
D11*
%TO.C,SW1*%
X97010000Y-142740000D03*
X90510000Y-142740000D03*
X97010000Y-147240000D03*
X90510000Y-147240000D03*
%TD*%
D23*
%TO.C,J3*%
X70680000Y-55800000D03*
X76460000Y-55800000D03*
D30*
X76820000Y-57245000D03*
X76020000Y-57245000D03*
D31*
X74820000Y-57245000D03*
X73820000Y-57245000D03*
X73320000Y-57245000D03*
X72320000Y-57245000D03*
D30*
X71120000Y-57245000D03*
X70320000Y-57245000D03*
X70320000Y-57245000D03*
X71120000Y-57245000D03*
D31*
X71820000Y-57245000D03*
X72820000Y-57245000D03*
X74320000Y-57245000D03*
X75320000Y-57245000D03*
D30*
X76020000Y-57245000D03*
X76820000Y-57245000D03*
D32*
X77890000Y-52150000D03*
D33*
X69250000Y-56330000D03*
X77890000Y-56330000D03*
D32*
X69250000Y-52150000D03*
%TD*%
D14*
%TO.C,C3*%
X61395000Y-75530000D03*
X59845000Y-75530000D03*
%TD*%
D34*
%TO.C,D6*%
X96050000Y-67490000D03*
D35*
X106210000Y-67490000D03*
%TD*%
D36*
%TO.C,D1*%
X131175000Y-64745000D03*
X131175000Y-66015000D03*
X131175000Y-67285000D03*
X131175000Y-68555000D03*
X136125000Y-68555000D03*
X136125000Y-67285000D03*
X136125000Y-66015000D03*
X136125000Y-64745000D03*
%TD*%
D11*
%TO.C,SW14*%
X117840000Y-128430000D03*
X124340000Y-128430000D03*
X117840000Y-132930000D03*
X124340000Y-132930000D03*
%TD*%
D17*
%TO.C,J8*%
X147740000Y-71740000D03*
D18*
X147740000Y-74280000D03*
X147740000Y-76820000D03*
%TD*%
D12*
%TO.C,C28*%
X66925000Y-111110000D03*
X68475000Y-111110000D03*
%TD*%
D13*
%TO.C,R12*%
X128370000Y-57755000D03*
X128370000Y-59405000D03*
%TD*%
D17*
%TO.C,J2*%
X52550000Y-108695000D03*
D18*
X52550000Y-111235000D03*
X52550000Y-113775000D03*
%TD*%
D11*
%TO.C,SW16*%
X130060000Y-138470000D03*
X136560000Y-138470000D03*
X136560000Y-142970000D03*
X130060000Y-142970000D03*
%TD*%
D36*
%TO.C,D2*%
X131145000Y-57975000D03*
X131145000Y-59245000D03*
X131145000Y-60515000D03*
X131145000Y-61785000D03*
X136095000Y-61785000D03*
X136095000Y-60515000D03*
X136095000Y-59245000D03*
X136095000Y-57975000D03*
%TD*%
D12*
%TO.C,C29*%
X66035000Y-114540000D03*
X67585000Y-114540000D03*
%TD*%
D37*
%TO.C,U2*%
X68945000Y-87315000D03*
X68945000Y-86045000D03*
X68945000Y-84775000D03*
X68945000Y-83505000D03*
X63995000Y-83505000D03*
X63995000Y-84775000D03*
X63995000Y-86045000D03*
X63995000Y-87315000D03*
%TD*%
D13*
%TO.C,R7*%
X84370000Y-96755000D03*
X84370000Y-98405000D03*
%TD*%
D38*
%TO.C,C11*%
X109400000Y-91995000D03*
X109400000Y-90445000D03*
%TD*%
D11*
%TO.C,SW18*%
X130000000Y-128440000D03*
X136500000Y-128440000D03*
X136500000Y-132940000D03*
X130000000Y-132940000D03*
%TD*%
D38*
%TO.C,C1*%
X87160000Y-68185000D03*
X87160000Y-66635000D03*
%TD*%
D21*
%TO.C,U4*%
X86900000Y-55480000D03*
X84600000Y-55480000D03*
X82300000Y-55480000D03*
D22*
X84600000Y-61780000D03*
%TD*%
D17*
%TO.C,J11*%
X148130000Y-67650000D03*
D18*
X145590000Y-67650000D03*
%TD*%
D13*
%TO.C,R3*%
X74770000Y-96735000D03*
X74770000Y-98385000D03*
%TD*%
%TO.C,R8*%
X86760000Y-96765000D03*
X86760000Y-98415000D03*
%TD*%
D17*
%TO.C,J7*%
X131170000Y-51840000D03*
D18*
X133710000Y-51840000D03*
X136250000Y-51840000D03*
X138790000Y-51840000D03*
%TD*%
D11*
%TO.C,SW5*%
X78420000Y-121960000D03*
X84920000Y-121960000D03*
X84920000Y-126460000D03*
X78420000Y-126460000D03*
%TD*%
%TO.C,SW6*%
X96900000Y-121950000D03*
X90400000Y-121950000D03*
X96900000Y-126450000D03*
X90400000Y-126450000D03*
%TD*%
D13*
%TO.C,R4*%
X77300000Y-96745000D03*
X77300000Y-98395000D03*
%TD*%
D17*
%TO.C,J9*%
X144655000Y-117410000D03*
D18*
X147195000Y-117410000D03*
%TD*%
D13*
%TO.C,R2*%
X72360000Y-96725000D03*
X72360000Y-98375000D03*
%TD*%
D12*
%TO.C,C16*%
X93975000Y-81870000D03*
X95525000Y-81870000D03*
%TD*%
D11*
%TO.C,SW7*%
X108930000Y-121950000D03*
X102430000Y-121950000D03*
X108930000Y-126450000D03*
X102430000Y-126450000D03*
%TD*%
D12*
%TO.C,C24*%
X83925000Y-83980000D03*
X85475000Y-83980000D03*
%TD*%
D17*
%TO.C,J10*%
X103955000Y-52450000D03*
D18*
X106495000Y-52450000D03*
X109035000Y-52450000D03*
%TD*%
D39*
%TO.C,U3*%
X65045000Y-137423298D03*
X58695000Y-137403498D03*
X65045000Y-132483298D03*
X58685000Y-132463298D03*
X64395000Y-117733298D03*
X61855000Y-117713298D03*
X59315000Y-117733298D03*
D40*
X68220000Y-131673298D03*
X68220000Y-121543298D03*
X55520000Y-121528498D03*
X55520000Y-131688498D03*
D39*
X70760000Y-129148498D03*
X70775000Y-126623298D03*
X70775000Y-124083298D03*
%TD*%
D15*
%TO.C,R28*%
X92935000Y-61240000D03*
X94585000Y-61240000D03*
%TD*%
D11*
%TO.C,SW11*%
X78530000Y-142770000D03*
X85030000Y-142770000D03*
X78530000Y-147270000D03*
X85030000Y-147270000D03*
%TD*%
D34*
%TO.C,D4*%
X123180000Y-92070000D03*
D35*
X123180000Y-102230000D03*
%TD*%
D13*
%TO.C,R16*%
X125560000Y-92005000D03*
X125560000Y-93655000D03*
%TD*%
D11*
%TO.C,SW10*%
X102510000Y-132350000D03*
X109010000Y-132350000D03*
X102510000Y-136850000D03*
X109010000Y-136850000D03*
%TD*%
D13*
%TO.C,R11*%
X128820000Y-64265000D03*
X128820000Y-65915000D03*
%TD*%
%TO.C,R1*%
X70080000Y-96725000D03*
X70080000Y-98375000D03*
%TD*%
D41*
%TO.C,L3*%
X121650000Y-55460000D03*
D42*
X114030000Y-55460000D03*
%TD*%
D11*
%TO.C,SW17*%
X60020000Y-53400000D03*
X66520000Y-53400000D03*
X60020000Y-57900000D03*
X66520000Y-57900000D03*
%TD*%
D43*
%TO.C,C20*%
X105710000Y-61252651D03*
D44*
X105710000Y-57452651D03*
%TD*%
D41*
%TO.C,L1*%
X144440000Y-87830000D03*
D42*
X144440000Y-80210000D03*
%TD*%
D17*
%TO.C,J6*%
X143325000Y-96030000D03*
D18*
X145865000Y-96030000D03*
%TD*%
D43*
%TO.C,C13*%
X135950000Y-86650000D03*
D44*
X132150000Y-86650000D03*
%TD*%
D43*
%TO.C,C30*%
X90570000Y-67177349D03*
D44*
X90570000Y-70977349D03*
%TD*%
D45*
%TO.C,Y1*%
X62600000Y-70680000D03*
X62600000Y-75580000D03*
%TD*%
D43*
%TO.C,C15*%
X134670000Y-98800000D03*
D44*
X130870000Y-98800000D03*
%TD*%
D41*
%TO.C,L2*%
X144520000Y-104310000D03*
D42*
X144520000Y-111930000D03*
%TD*%
M02*
