M48
; DRILL file {KiCad 6.0.11+dfsg-1~bpo11+1} date Пн 24 апр 2023 16:36:34
; FORMAT={-:-/ absolute / metric / decimal}
; #@! TF.CreationDate,2023-04-24T16:36:34+03:00
; #@! TF.GenerationSoftware,Kicad,Pcbnew,6.0.11+dfsg-1~bpo11+1
; #@! TF.FileFunction,Plated,1,2,PTH
FMAT,2
METRIC
; #@! TA.AperFunction,Plated,PTH,ViaDrill
T1C0.400
; #@! TA.AperFunction,Plated,PTH,ComponentDrill
T2C0.600
; #@! TA.AperFunction,Plated,PTH,ComponentDrill
T3C0.800
; #@! TA.AperFunction,Plated,PTH,ComponentDrill
T4C0.889
; #@! TA.AperFunction,Plated,PTH,ComponentDrill
T5C0.900
; #@! TA.AperFunction,Plated,PTH,ComponentDrill
T6C1.000
; #@! TA.AperFunction,Plated,PTH,ComponentDrill
T7C1.100
; #@! TA.AperFunction,Plated,PTH,ComponentDrill
T8C1.200
; #@! TA.AperFunction,Plated,PTH,ComponentDrill
T9C1.397
%
G90
G05
T1
X57.9Y-68.5
X58.46Y-84.48
X59.95Y-85.49
X61.01Y-83.41
X62.14Y-83.39
X64.8Y-79.62
X65.245Y-67.515
X65.33Y-60.43
X65.39Y-62.66
X65.41Y-63.76
X65.45Y-64.82
X65.63Y-83.71
X65.67Y-85.68
X66.41Y-98.81
X66.46Y-81.17
X67.26Y-78.78
X67.59Y-60.48
X67.61Y-61.55
X67.62Y-62.64
X67.65Y-63.76
X67.66Y-64.81
X67.78Y-83.6
X68.45Y-76.85
X70.08Y-96.725
X70.08Y-100.44
X70.77Y-60.0
X70.82Y-65.12
X71.526Y-77.731
X71.6Y-67.71
X71.82Y-64.46
X72.12Y-73.16
X72.13Y-68.85
X72.31Y-76.38
X72.336Y-71.202
X72.35Y-70.03
X72.36Y-96.725
X72.36Y-100.37
X72.38Y-78.84
X72.493Y-75.247
X72.505Y-74.235
X72.8Y-67.46
X72.91Y-77.21
X73.578Y-72.932
X73.83Y-64.44
X74.524Y-79.751
X74.77Y-96.735
X74.77Y-100.3
X75.05Y-55.66
X75.11Y-77.29
X76.06Y-78.04
X76.07Y-82.98
X77.0Y-71.1
X77.265Y-96.71
X77.28Y-100.36
X77.83Y-72.08
X78.16Y-85.34
X78.51Y-94.3
X79.08Y-72.09
X79.79Y-96.745
X79.8Y-71.28
X80.31Y-70.34
X80.79Y-69.4
X81.16Y-68.39
X81.61Y-67.42
X81.99Y-96.745
X82.085Y-55.695
X82.43Y-64.29
X83.06Y-51.71
X83.21Y-72.14
X83.28Y-79.01
X83.42Y-67.455
X83.43Y-68.72
X83.76Y-65.04
X84.37Y-96.755
X84.6Y-55.48
X84.6Y-61.78
X85.83Y-67.17
X86.72Y-98.375
X86.89Y-56.45
X87.6Y-63.89
X88.91Y-95.03
X88.93Y-76.82
X88.97Y-77.96
X88.99Y-80.13
X89.01Y-79.01
X89.13Y-59.2
X89.735Y-63.805
X90.72Y-93.4
X90.76Y-56.74
X90.85Y-73.38
X92.86Y-78.76
X93.09Y-56.81
X96.22Y-77.1
X96.78Y-65.64
X98.04Y-70.36
X98.91Y-72.08
X99.755Y-77.925
X99.93Y-82.62
X100.43Y-76.74
X102.03Y-72.19
X103.095Y-92.195
X104.2Y-88.83
X104.52Y-69.97
X104.91Y-94.44
X105.62Y-73.73
X107.93Y-88.77
X108.72Y-70.18
X109.07Y-95.69
X109.4Y-91.995
X110.87Y-80.65
X110.94Y-82.46
X112.28Y-108.57
X112.91Y-92.52
X113.67Y-96.14
X113.985Y-89.715
X114.69Y-86.53
X114.91Y-88.5
X115.96Y-114.68
X116.65Y-97.13
X119.64Y-102.11
X119.78Y-73.84
X120.775Y-92.305
X120.84Y-68.34
X121.19Y-123.28
X121.76Y-106.51
X126.03Y-72.85
X126.52Y-61.97
X126.68Y-106.8
X127.45Y-89.86
X132.835Y-130.35
X133.33Y-55.44
X134.305Y-67.945
X134.41Y-55.45
X134.96Y-68.61
X135.44Y-72.77
X137.84Y-55.23
X138.29Y-60.71
X138.39Y-73.64
X138.54Y-77.99
X138.65Y-79.02
X138.76Y-68.47
X138.94Y-63.57
X139.49Y-82.01
X140.12Y-64.92
X143.56Y-75.42
T3
X62.6Y-70.68
X62.6Y-75.58
X105.71Y-57.453
X105.71Y-61.253
X131.913Y-100.17
X131.96Y-51.58
X132.15Y-86.65
X133.96Y-51.58
X135.713Y-100.17
X135.95Y-86.65
X135.96Y-51.58
X137.96Y-51.58
T4
X59.315Y-117.733
X61.855Y-117.713
X64.395Y-117.733
X70.76Y-129.148
X70.775Y-124.083
X70.775Y-126.623
T5
X58.685Y-132.463
X58.695Y-137.403
X65.045Y-132.483
X65.045Y-137.423
T6
X52.865Y-57.305
X52.865Y-59.845
X52.865Y-62.385
X52.865Y-64.925
X52.865Y-67.465
X52.865Y-70.005
X52.865Y-72.545
X52.865Y-75.085
X52.865Y-77.625
X52.865Y-80.165
X52.865Y-82.705
X52.865Y-85.245
X52.865Y-87.785
X52.865Y-90.325
X52.865Y-92.865
X52.865Y-95.405
X52.865Y-97.945
X55.405Y-57.305
X55.405Y-59.845
X55.405Y-62.385
X55.405Y-64.925
X55.405Y-67.465
X55.405Y-70.005
X55.405Y-72.545
X55.405Y-75.085
X55.405Y-77.625
X55.405Y-80.165
X55.405Y-82.705
X55.405Y-85.245
X55.405Y-87.785
X55.405Y-90.325
X55.405Y-92.865
X55.405Y-95.405
X55.405Y-97.945
X91.27Y-52.46
X93.81Y-52.46
X96.35Y-52.46
X98.89Y-52.46
X103.955Y-52.45
X106.495Y-52.45
X109.035Y-52.45
X143.325Y-96.03
X144.655Y-117.41
X145.59Y-67.65
X145.865Y-96.03
X147.195Y-117.41
X147.74Y-71.74
X147.74Y-74.28
X147.74Y-76.82
X148.13Y-67.65
T7
X60.02Y-53.4
X60.02Y-57.9
X66.52Y-53.4
X66.52Y-57.9
X78.42Y-121.96
X78.42Y-126.46
X78.45Y-132.44
X78.45Y-136.94
X78.47Y-111.53
X78.47Y-116.03
X78.53Y-142.77
X78.53Y-147.27
X84.92Y-121.96
X84.92Y-126.46
X84.95Y-132.44
X84.95Y-136.94
X84.97Y-111.53
X84.97Y-116.03
X85.03Y-142.77
X85.03Y-147.27
X90.4Y-121.95
X90.4Y-126.45
X90.48Y-132.42
X90.48Y-136.92
X90.51Y-142.74
X90.51Y-147.24
X90.52Y-111.51
X90.52Y-116.01
X96.9Y-121.95
X96.9Y-126.45
X96.98Y-132.42
X96.98Y-136.92
X97.01Y-142.74
X97.01Y-147.24
X97.02Y-111.51
X97.02Y-116.01
X102.43Y-121.95
X102.43Y-126.45
X102.5Y-142.74
X102.5Y-147.24
X102.51Y-132.35
X102.51Y-136.85
X102.57Y-111.53
X102.57Y-116.03
X108.93Y-121.95
X108.93Y-126.45
X109.0Y-142.74
X109.0Y-147.24
X109.01Y-132.35
X109.01Y-136.85
X109.07Y-111.53
X109.07Y-116.03
X117.84Y-128.43
X117.84Y-132.93
X124.34Y-128.43
X124.34Y-132.93
X129.92Y-118.52
X129.92Y-123.02
X130.0Y-128.44
X130.0Y-132.94
X130.06Y-138.47
X130.06Y-142.97
X136.42Y-118.52
X136.42Y-123.02
X136.5Y-128.44
X136.5Y-132.94
X136.56Y-138.47
X136.56Y-142.97
X141.98Y-128.42
X141.98Y-132.92
X148.48Y-128.42
X148.48Y-132.92
T8
X114.03Y-55.46
X121.65Y-55.46
X144.44Y-80.21
X144.44Y-87.83
X144.52Y-104.31
X144.52Y-111.93
T9
X55.52Y-121.528
X55.52Y-131.688
X68.22Y-121.543
X68.22Y-131.673
T2
G00X69.25Y-52.45
M15
G01X69.25Y-51.85
M16
G05
G00X69.25Y-56.88
M15
G01X69.25Y-55.78
M16
G05
G00X77.89Y-52.45
M15
G01X77.89Y-51.85
M16
G05
G00X77.89Y-56.88
M15
G01X77.89Y-55.78
M16
G05
G00X143.3Y-55.62
M15
G01X144.4Y-55.62
M16
G05
G00X143.3Y-64.26
M15
G01X144.4Y-64.26
M16
G05
G00X147.73Y-55.62
M15
G01X148.33Y-55.62
M16
G05
G00X147.73Y-64.26
M15
G01X148.33Y-64.26
M16
G05
T0
M30
