%TF.GenerationSoftware,KiCad,Pcbnew,6.0.11+dfsg-1~bpo11+1*%
%TF.CreationDate,2023-04-24T16:35:23+03:00*%
%TF.ProjectId,usb_display,7573625f-6469-4737-906c-61792e6b6963,rev?*%
%TF.SameCoordinates,Original*%
%TF.FileFunction,Legend,Top*%
%TF.FilePolarity,Positive*%
%FSLAX46Y46*%
G04 Gerber Fmt 4.6, Leading zero omitted, Abs format (unit mm)*
G04 Created by KiCad (PCBNEW 6.0.11+dfsg-1~bpo11+1) date 2023-04-24 16:35:23*
%MOMM*%
%LPD*%
G01*
G04 APERTURE LIST*
%ADD10C,0.150000*%
%ADD11C,0.120000*%
%ADD12C,0.200000*%
%ADD13C,0.127000*%
G04 APERTURE END LIST*
D10*
%TO.C,J7*%
X128912380Y-51913333D02*
X129626666Y-51913333D01*
X129769523Y-51960952D01*
X129864761Y-52056190D01*
X129912380Y-52199047D01*
X129912380Y-52294285D01*
X128912380Y-51532380D02*
X128912380Y-50865714D01*
X129912380Y-51294285D01*
%TO.C,C26*%
X87647142Y-82062857D02*
X87694761Y-82110476D01*
X87742380Y-82253333D01*
X87742380Y-82348571D01*
X87694761Y-82491428D01*
X87599523Y-82586666D01*
X87504285Y-82634285D01*
X87313809Y-82681904D01*
X87170952Y-82681904D01*
X86980476Y-82634285D01*
X86885238Y-82586666D01*
X86790000Y-82491428D01*
X86742380Y-82348571D01*
X86742380Y-82253333D01*
X86790000Y-82110476D01*
X86837619Y-82062857D01*
X86837619Y-81681904D02*
X86790000Y-81634285D01*
X86742380Y-81539047D01*
X86742380Y-81300952D01*
X86790000Y-81205714D01*
X86837619Y-81158095D01*
X86932857Y-81110476D01*
X87028095Y-81110476D01*
X87170952Y-81158095D01*
X87742380Y-81729523D01*
X87742380Y-81110476D01*
X86742380Y-80253333D02*
X86742380Y-80443809D01*
X86790000Y-80539047D01*
X86837619Y-80586666D01*
X86980476Y-80681904D01*
X87170952Y-80729523D01*
X87551904Y-80729523D01*
X87647142Y-80681904D01*
X87694761Y-80634285D01*
X87742380Y-80539047D01*
X87742380Y-80348571D01*
X87694761Y-80253333D01*
X87647142Y-80205714D01*
X87551904Y-80158095D01*
X87313809Y-80158095D01*
X87218571Y-80205714D01*
X87170952Y-80253333D01*
X87123333Y-80348571D01*
X87123333Y-80539047D01*
X87170952Y-80634285D01*
X87218571Y-80681904D01*
X87313809Y-80729523D01*
%TO.C,SW3*%
X92436666Y-109914761D02*
X92579523Y-109962380D01*
X92817619Y-109962380D01*
X92912857Y-109914761D01*
X92960476Y-109867142D01*
X93008095Y-109771904D01*
X93008095Y-109676666D01*
X92960476Y-109581428D01*
X92912857Y-109533809D01*
X92817619Y-109486190D01*
X92627142Y-109438571D01*
X92531904Y-109390952D01*
X92484285Y-109343333D01*
X92436666Y-109248095D01*
X92436666Y-109152857D01*
X92484285Y-109057619D01*
X92531904Y-109010000D01*
X92627142Y-108962380D01*
X92865238Y-108962380D01*
X93008095Y-109010000D01*
X93341428Y-108962380D02*
X93579523Y-109962380D01*
X93770000Y-109248095D01*
X93960476Y-109962380D01*
X94198571Y-108962380D01*
X94484285Y-108962380D02*
X95103333Y-108962380D01*
X94770000Y-109343333D01*
X94912857Y-109343333D01*
X95008095Y-109390952D01*
X95055714Y-109438571D01*
X95103333Y-109533809D01*
X95103333Y-109771904D01*
X95055714Y-109867142D01*
X95008095Y-109914761D01*
X94912857Y-109962380D01*
X94627142Y-109962380D01*
X94531904Y-109914761D01*
X94484285Y-109867142D01*
%TO.C,C18*%
X133197142Y-96627142D02*
X133149523Y-96674761D01*
X133006666Y-96722380D01*
X132911428Y-96722380D01*
X132768571Y-96674761D01*
X132673333Y-96579523D01*
X132625714Y-96484285D01*
X132578095Y-96293809D01*
X132578095Y-96150952D01*
X132625714Y-95960476D01*
X132673333Y-95865238D01*
X132768571Y-95770000D01*
X132911428Y-95722380D01*
X133006666Y-95722380D01*
X133149523Y-95770000D01*
X133197142Y-95817619D01*
X134149523Y-96722380D02*
X133578095Y-96722380D01*
X133863809Y-96722380D02*
X133863809Y-95722380D01*
X133768571Y-95865238D01*
X133673333Y-95960476D01*
X133578095Y-96008095D01*
X134720952Y-96150952D02*
X134625714Y-96103333D01*
X134578095Y-96055714D01*
X134530476Y-95960476D01*
X134530476Y-95912857D01*
X134578095Y-95817619D01*
X134625714Y-95770000D01*
X134720952Y-95722380D01*
X134911428Y-95722380D01*
X135006666Y-95770000D01*
X135054285Y-95817619D01*
X135101904Y-95912857D01*
X135101904Y-95960476D01*
X135054285Y-96055714D01*
X135006666Y-96103333D01*
X134911428Y-96150952D01*
X134720952Y-96150952D01*
X134625714Y-96198571D01*
X134578095Y-96246190D01*
X134530476Y-96341428D01*
X134530476Y-96531904D01*
X134578095Y-96627142D01*
X134625714Y-96674761D01*
X134720952Y-96722380D01*
X134911428Y-96722380D01*
X135006666Y-96674761D01*
X135054285Y-96627142D01*
X135101904Y-96531904D01*
X135101904Y-96341428D01*
X135054285Y-96246190D01*
X135006666Y-96198571D01*
X134911428Y-96150952D01*
%TO.C,R5*%
X80402380Y-95326666D02*
X79926190Y-95660000D01*
X80402380Y-95898095D02*
X79402380Y-95898095D01*
X79402380Y-95517142D01*
X79450000Y-95421904D01*
X79497619Y-95374285D01*
X79592857Y-95326666D01*
X79735714Y-95326666D01*
X79830952Y-95374285D01*
X79878571Y-95421904D01*
X79926190Y-95517142D01*
X79926190Y-95898095D01*
X79402380Y-94421904D02*
X79402380Y-94898095D01*
X79878571Y-94945714D01*
X79830952Y-94898095D01*
X79783333Y-94802857D01*
X79783333Y-94564761D01*
X79830952Y-94469523D01*
X79878571Y-94421904D01*
X79973809Y-94374285D01*
X80211904Y-94374285D01*
X80307142Y-94421904D01*
X80354761Y-94469523D01*
X80402380Y-94564761D01*
X80402380Y-94802857D01*
X80354761Y-94898095D01*
X80307142Y-94945714D01*
%TO.C,C2*%
X60443333Y-72427142D02*
X60395714Y-72474761D01*
X60252857Y-72522380D01*
X60157619Y-72522380D01*
X60014761Y-72474761D01*
X59919523Y-72379523D01*
X59871904Y-72284285D01*
X59824285Y-72093809D01*
X59824285Y-71950952D01*
X59871904Y-71760476D01*
X59919523Y-71665238D01*
X60014761Y-71570000D01*
X60157619Y-71522380D01*
X60252857Y-71522380D01*
X60395714Y-71570000D01*
X60443333Y-71617619D01*
X60824285Y-71617619D02*
X60871904Y-71570000D01*
X60967142Y-71522380D01*
X61205238Y-71522380D01*
X61300476Y-71570000D01*
X61348095Y-71617619D01*
X61395714Y-71712857D01*
X61395714Y-71808095D01*
X61348095Y-71950952D01*
X60776666Y-72522380D01*
X61395714Y-72522380D01*
%TO.C,SW8*%
X80366666Y-130844761D02*
X80509523Y-130892380D01*
X80747619Y-130892380D01*
X80842857Y-130844761D01*
X80890476Y-130797142D01*
X80938095Y-130701904D01*
X80938095Y-130606666D01*
X80890476Y-130511428D01*
X80842857Y-130463809D01*
X80747619Y-130416190D01*
X80557142Y-130368571D01*
X80461904Y-130320952D01*
X80414285Y-130273333D01*
X80366666Y-130178095D01*
X80366666Y-130082857D01*
X80414285Y-129987619D01*
X80461904Y-129940000D01*
X80557142Y-129892380D01*
X80795238Y-129892380D01*
X80938095Y-129940000D01*
X81271428Y-129892380D02*
X81509523Y-130892380D01*
X81700000Y-130178095D01*
X81890476Y-130892380D01*
X82128571Y-129892380D01*
X82652380Y-130320952D02*
X82557142Y-130273333D01*
X82509523Y-130225714D01*
X82461904Y-130130476D01*
X82461904Y-130082857D01*
X82509523Y-129987619D01*
X82557142Y-129940000D01*
X82652380Y-129892380D01*
X82842857Y-129892380D01*
X82938095Y-129940000D01*
X82985714Y-129987619D01*
X83033333Y-130082857D01*
X83033333Y-130130476D01*
X82985714Y-130225714D01*
X82938095Y-130273333D01*
X82842857Y-130320952D01*
X82652380Y-130320952D01*
X82557142Y-130368571D01*
X82509523Y-130416190D01*
X82461904Y-130511428D01*
X82461904Y-130701904D01*
X82509523Y-130797142D01*
X82557142Y-130844761D01*
X82652380Y-130892380D01*
X82842857Y-130892380D01*
X82938095Y-130844761D01*
X82985714Y-130797142D01*
X83033333Y-130701904D01*
X83033333Y-130511428D01*
X82985714Y-130416190D01*
X82938095Y-130368571D01*
X82842857Y-130320952D01*
%TO.C,C14*%
X139837142Y-55252857D02*
X139884761Y-55300476D01*
X139932380Y-55443333D01*
X139932380Y-55538571D01*
X139884761Y-55681428D01*
X139789523Y-55776666D01*
X139694285Y-55824285D01*
X139503809Y-55871904D01*
X139360952Y-55871904D01*
X139170476Y-55824285D01*
X139075238Y-55776666D01*
X138980000Y-55681428D01*
X138932380Y-55538571D01*
X138932380Y-55443333D01*
X138980000Y-55300476D01*
X139027619Y-55252857D01*
X139932380Y-54300476D02*
X139932380Y-54871904D01*
X139932380Y-54586190D02*
X138932380Y-54586190D01*
X139075238Y-54681428D01*
X139170476Y-54776666D01*
X139218095Y-54871904D01*
X139265714Y-53443333D02*
X139932380Y-53443333D01*
X138884761Y-53681428D02*
X139599047Y-53919523D01*
X139599047Y-53300476D01*
%TO.C,R17*%
X125727142Y-88752380D02*
X125393809Y-88276190D01*
X125155714Y-88752380D02*
X125155714Y-87752380D01*
X125536666Y-87752380D01*
X125631904Y-87800000D01*
X125679523Y-87847619D01*
X125727142Y-87942857D01*
X125727142Y-88085714D01*
X125679523Y-88180952D01*
X125631904Y-88228571D01*
X125536666Y-88276190D01*
X125155714Y-88276190D01*
X126679523Y-88752380D02*
X126108095Y-88752380D01*
X126393809Y-88752380D02*
X126393809Y-87752380D01*
X126298571Y-87895238D01*
X126203333Y-87990476D01*
X126108095Y-88038095D01*
X127012857Y-87752380D02*
X127679523Y-87752380D01*
X127250952Y-88752380D01*
%TO.C,C12*%
X143207142Y-70582857D02*
X143254761Y-70630476D01*
X143302380Y-70773333D01*
X143302380Y-70868571D01*
X143254761Y-71011428D01*
X143159523Y-71106666D01*
X143064285Y-71154285D01*
X142873809Y-71201904D01*
X142730952Y-71201904D01*
X142540476Y-71154285D01*
X142445238Y-71106666D01*
X142350000Y-71011428D01*
X142302380Y-70868571D01*
X142302380Y-70773333D01*
X142350000Y-70630476D01*
X142397619Y-70582857D01*
X143302380Y-69630476D02*
X143302380Y-70201904D01*
X143302380Y-69916190D02*
X142302380Y-69916190D01*
X142445238Y-70011428D01*
X142540476Y-70106666D01*
X142588095Y-70201904D01*
X142397619Y-69249523D02*
X142350000Y-69201904D01*
X142302380Y-69106666D01*
X142302380Y-68868571D01*
X142350000Y-68773333D01*
X142397619Y-68725714D01*
X142492857Y-68678095D01*
X142588095Y-68678095D01*
X142730952Y-68725714D01*
X143302380Y-69297142D01*
X143302380Y-68678095D01*
%TO.C,C23*%
X66007142Y-79387142D02*
X65959523Y-79434761D01*
X65816666Y-79482380D01*
X65721428Y-79482380D01*
X65578571Y-79434761D01*
X65483333Y-79339523D01*
X65435714Y-79244285D01*
X65388095Y-79053809D01*
X65388095Y-78910952D01*
X65435714Y-78720476D01*
X65483333Y-78625238D01*
X65578571Y-78530000D01*
X65721428Y-78482380D01*
X65816666Y-78482380D01*
X65959523Y-78530000D01*
X66007142Y-78577619D01*
X66388095Y-78577619D02*
X66435714Y-78530000D01*
X66530952Y-78482380D01*
X66769047Y-78482380D01*
X66864285Y-78530000D01*
X66911904Y-78577619D01*
X66959523Y-78672857D01*
X66959523Y-78768095D01*
X66911904Y-78910952D01*
X66340476Y-79482380D01*
X66959523Y-79482380D01*
X67292857Y-78482380D02*
X67911904Y-78482380D01*
X67578571Y-78863333D01*
X67721428Y-78863333D01*
X67816666Y-78910952D01*
X67864285Y-78958571D01*
X67911904Y-79053809D01*
X67911904Y-79291904D01*
X67864285Y-79387142D01*
X67816666Y-79434761D01*
X67721428Y-79482380D01*
X67435714Y-79482380D01*
X67340476Y-79434761D01*
X67292857Y-79387142D01*
%TO.C,Q4*%
X122774761Y-72057619D02*
X122679523Y-72010000D01*
X122584285Y-71914761D01*
X122441428Y-71771904D01*
X122346190Y-71724285D01*
X122250952Y-71724285D01*
X122298571Y-71962380D02*
X122203333Y-71914761D01*
X122108095Y-71819523D01*
X122060476Y-71629047D01*
X122060476Y-71295714D01*
X122108095Y-71105238D01*
X122203333Y-71010000D01*
X122298571Y-70962380D01*
X122489047Y-70962380D01*
X122584285Y-71010000D01*
X122679523Y-71105238D01*
X122727142Y-71295714D01*
X122727142Y-71629047D01*
X122679523Y-71819523D01*
X122584285Y-71914761D01*
X122489047Y-71962380D01*
X122298571Y-71962380D01*
X123584285Y-71295714D02*
X123584285Y-71962380D01*
X123346190Y-70914761D02*
X123108095Y-71629047D01*
X123727142Y-71629047D01*
%TO.C,R13*%
X140282380Y-60512857D02*
X139806190Y-60846190D01*
X140282380Y-61084285D02*
X139282380Y-61084285D01*
X139282380Y-60703333D01*
X139330000Y-60608095D01*
X139377619Y-60560476D01*
X139472857Y-60512857D01*
X139615714Y-60512857D01*
X139710952Y-60560476D01*
X139758571Y-60608095D01*
X139806190Y-60703333D01*
X139806190Y-61084285D01*
X140282380Y-59560476D02*
X140282380Y-60131904D01*
X140282380Y-59846190D02*
X139282380Y-59846190D01*
X139425238Y-59941428D01*
X139520476Y-60036666D01*
X139568095Y-60131904D01*
X139282380Y-59227142D02*
X139282380Y-58608095D01*
X139663333Y-58941428D01*
X139663333Y-58798571D01*
X139710952Y-58703333D01*
X139758571Y-58655714D01*
X139853809Y-58608095D01*
X140091904Y-58608095D01*
X140187142Y-58655714D01*
X140234761Y-58703333D01*
X140282380Y-58798571D01*
X140282380Y-59084285D01*
X140234761Y-59179523D01*
X140187142Y-59227142D01*
%TO.C,J4*%
X53801666Y-99727380D02*
X53801666Y-100441666D01*
X53754047Y-100584523D01*
X53658809Y-100679761D01*
X53515952Y-100727380D01*
X53420714Y-100727380D01*
X54706428Y-100060714D02*
X54706428Y-100727380D01*
X54468333Y-99679761D02*
X54230238Y-100394047D01*
X54849285Y-100394047D01*
%TO.C,SW4*%
X104486666Y-109934761D02*
X104629523Y-109982380D01*
X104867619Y-109982380D01*
X104962857Y-109934761D01*
X105010476Y-109887142D01*
X105058095Y-109791904D01*
X105058095Y-109696666D01*
X105010476Y-109601428D01*
X104962857Y-109553809D01*
X104867619Y-109506190D01*
X104677142Y-109458571D01*
X104581904Y-109410952D01*
X104534285Y-109363333D01*
X104486666Y-109268095D01*
X104486666Y-109172857D01*
X104534285Y-109077619D01*
X104581904Y-109030000D01*
X104677142Y-108982380D01*
X104915238Y-108982380D01*
X105058095Y-109030000D01*
X105391428Y-108982380D02*
X105629523Y-109982380D01*
X105820000Y-109268095D01*
X106010476Y-109982380D01*
X106248571Y-108982380D01*
X107058095Y-109315714D02*
X107058095Y-109982380D01*
X106820000Y-108934761D02*
X106581904Y-109649047D01*
X107200952Y-109649047D01*
%TO.C,Q5*%
X106857619Y-69625238D02*
X106810000Y-69720476D01*
X106714761Y-69815714D01*
X106571904Y-69958571D01*
X106524285Y-70053809D01*
X106524285Y-70149047D01*
X106762380Y-70101428D02*
X106714761Y-70196666D01*
X106619523Y-70291904D01*
X106429047Y-70339523D01*
X106095714Y-70339523D01*
X105905238Y-70291904D01*
X105810000Y-70196666D01*
X105762380Y-70101428D01*
X105762380Y-69910952D01*
X105810000Y-69815714D01*
X105905238Y-69720476D01*
X106095714Y-69672857D01*
X106429047Y-69672857D01*
X106619523Y-69720476D01*
X106714761Y-69815714D01*
X106762380Y-69910952D01*
X106762380Y-70101428D01*
X105762380Y-68768095D02*
X105762380Y-69244285D01*
X106238571Y-69291904D01*
X106190952Y-69244285D01*
X106143333Y-69149047D01*
X106143333Y-68910952D01*
X106190952Y-68815714D01*
X106238571Y-68768095D01*
X106333809Y-68720476D01*
X106571904Y-68720476D01*
X106667142Y-68768095D01*
X106714761Y-68815714D01*
X106762380Y-68910952D01*
X106762380Y-69149047D01*
X106714761Y-69244285D01*
X106667142Y-69291904D01*
%TO.C,J5*%
X144332380Y-59683333D02*
X145046666Y-59683333D01*
X145189523Y-59730952D01*
X145284761Y-59826190D01*
X145332380Y-59969047D01*
X145332380Y-60064285D01*
X144332380Y-58730952D02*
X144332380Y-59207142D01*
X144808571Y-59254761D01*
X144760952Y-59207142D01*
X144713333Y-59111904D01*
X144713333Y-58873809D01*
X144760952Y-58778571D01*
X144808571Y-58730952D01*
X144903809Y-58683333D01*
X145141904Y-58683333D01*
X145237142Y-58730952D01*
X145284761Y-58778571D01*
X145332380Y-58873809D01*
X145332380Y-59111904D01*
X145284761Y-59207142D01*
X145237142Y-59254761D01*
%TO.C,SW12*%
X103940476Y-141144761D02*
X104083333Y-141192380D01*
X104321428Y-141192380D01*
X104416666Y-141144761D01*
X104464285Y-141097142D01*
X104511904Y-141001904D01*
X104511904Y-140906666D01*
X104464285Y-140811428D01*
X104416666Y-140763809D01*
X104321428Y-140716190D01*
X104130952Y-140668571D01*
X104035714Y-140620952D01*
X103988095Y-140573333D01*
X103940476Y-140478095D01*
X103940476Y-140382857D01*
X103988095Y-140287619D01*
X104035714Y-140240000D01*
X104130952Y-140192380D01*
X104369047Y-140192380D01*
X104511904Y-140240000D01*
X104845238Y-140192380D02*
X105083333Y-141192380D01*
X105273809Y-140478095D01*
X105464285Y-141192380D01*
X105702380Y-140192380D01*
X106607142Y-141192380D02*
X106035714Y-141192380D01*
X106321428Y-141192380D02*
X106321428Y-140192380D01*
X106226190Y-140335238D01*
X106130952Y-140430476D01*
X106035714Y-140478095D01*
X106988095Y-140287619D02*
X107035714Y-140240000D01*
X107130952Y-140192380D01*
X107369047Y-140192380D01*
X107464285Y-140240000D01*
X107511904Y-140287619D01*
X107559523Y-140382857D01*
X107559523Y-140478095D01*
X107511904Y-140620952D01*
X106940476Y-141192380D01*
X107559523Y-141192380D01*
%TO.C,SW15*%
X143420476Y-126824761D02*
X143563333Y-126872380D01*
X143801428Y-126872380D01*
X143896666Y-126824761D01*
X143944285Y-126777142D01*
X143991904Y-126681904D01*
X143991904Y-126586666D01*
X143944285Y-126491428D01*
X143896666Y-126443809D01*
X143801428Y-126396190D01*
X143610952Y-126348571D01*
X143515714Y-126300952D01*
X143468095Y-126253333D01*
X143420476Y-126158095D01*
X143420476Y-126062857D01*
X143468095Y-125967619D01*
X143515714Y-125920000D01*
X143610952Y-125872380D01*
X143849047Y-125872380D01*
X143991904Y-125920000D01*
X144325238Y-125872380D02*
X144563333Y-126872380D01*
X144753809Y-126158095D01*
X144944285Y-126872380D01*
X145182380Y-125872380D01*
X146087142Y-126872380D02*
X145515714Y-126872380D01*
X145801428Y-126872380D02*
X145801428Y-125872380D01*
X145706190Y-126015238D01*
X145610952Y-126110476D01*
X145515714Y-126158095D01*
X146991904Y-125872380D02*
X146515714Y-125872380D01*
X146468095Y-126348571D01*
X146515714Y-126300952D01*
X146610952Y-126253333D01*
X146849047Y-126253333D01*
X146944285Y-126300952D01*
X146991904Y-126348571D01*
X147039523Y-126443809D01*
X147039523Y-126681904D01*
X146991904Y-126777142D01*
X146944285Y-126824761D01*
X146849047Y-126872380D01*
X146610952Y-126872380D01*
X146515714Y-126824761D01*
X146468095Y-126777142D01*
%TO.C,R6*%
X82522380Y-95346666D02*
X82046190Y-95680000D01*
X82522380Y-95918095D02*
X81522380Y-95918095D01*
X81522380Y-95537142D01*
X81570000Y-95441904D01*
X81617619Y-95394285D01*
X81712857Y-95346666D01*
X81855714Y-95346666D01*
X81950952Y-95394285D01*
X81998571Y-95441904D01*
X82046190Y-95537142D01*
X82046190Y-95918095D01*
X81522380Y-94489523D02*
X81522380Y-94680000D01*
X81570000Y-94775238D01*
X81617619Y-94822857D01*
X81760476Y-94918095D01*
X81950952Y-94965714D01*
X82331904Y-94965714D01*
X82427142Y-94918095D01*
X82474761Y-94870476D01*
X82522380Y-94775238D01*
X82522380Y-94584761D01*
X82474761Y-94489523D01*
X82427142Y-94441904D01*
X82331904Y-94394285D01*
X82093809Y-94394285D01*
X81998571Y-94441904D01*
X81950952Y-94489523D01*
X81903333Y-94584761D01*
X81903333Y-94775238D01*
X81950952Y-94870476D01*
X81998571Y-94918095D01*
X82093809Y-94965714D01*
%TO.C,R15*%
X96337142Y-78892380D02*
X96003809Y-78416190D01*
X95765714Y-78892380D02*
X95765714Y-77892380D01*
X96146666Y-77892380D01*
X96241904Y-77940000D01*
X96289523Y-77987619D01*
X96337142Y-78082857D01*
X96337142Y-78225714D01*
X96289523Y-78320952D01*
X96241904Y-78368571D01*
X96146666Y-78416190D01*
X95765714Y-78416190D01*
X97289523Y-78892380D02*
X96718095Y-78892380D01*
X97003809Y-78892380D02*
X97003809Y-77892380D01*
X96908571Y-78035238D01*
X96813333Y-78130476D01*
X96718095Y-78178095D01*
X98194285Y-77892380D02*
X97718095Y-77892380D01*
X97670476Y-78368571D01*
X97718095Y-78320952D01*
X97813333Y-78273333D01*
X98051428Y-78273333D01*
X98146666Y-78320952D01*
X98194285Y-78368571D01*
X98241904Y-78463809D01*
X98241904Y-78701904D01*
X98194285Y-78797142D01*
X98146666Y-78844761D01*
X98051428Y-78892380D01*
X97813333Y-78892380D01*
X97718095Y-78844761D01*
X97670476Y-78797142D01*
%TO.C,U1*%
X76518095Y-63632380D02*
X76518095Y-64441904D01*
X76565714Y-64537142D01*
X76613333Y-64584761D01*
X76708571Y-64632380D01*
X76899047Y-64632380D01*
X76994285Y-64584761D01*
X77041904Y-64537142D01*
X77089523Y-64441904D01*
X77089523Y-63632380D01*
X78089523Y-64632380D02*
X77518095Y-64632380D01*
X77803809Y-64632380D02*
X77803809Y-63632380D01*
X77708571Y-63775238D01*
X77613333Y-63870476D01*
X77518095Y-63918095D01*
%TO.C,J1*%
X97802380Y-54943333D02*
X98516666Y-54943333D01*
X98659523Y-54990952D01*
X98754761Y-55086190D01*
X98802380Y-55229047D01*
X98802380Y-55324285D01*
X98802380Y-53943333D02*
X98802380Y-54514761D01*
X98802380Y-54229047D02*
X97802380Y-54229047D01*
X97945238Y-54324285D01*
X98040476Y-54419523D01*
X98088095Y-54514761D01*
%TO.C,SW9*%
X92396666Y-130824761D02*
X92539523Y-130872380D01*
X92777619Y-130872380D01*
X92872857Y-130824761D01*
X92920476Y-130777142D01*
X92968095Y-130681904D01*
X92968095Y-130586666D01*
X92920476Y-130491428D01*
X92872857Y-130443809D01*
X92777619Y-130396190D01*
X92587142Y-130348571D01*
X92491904Y-130300952D01*
X92444285Y-130253333D01*
X92396666Y-130158095D01*
X92396666Y-130062857D01*
X92444285Y-129967619D01*
X92491904Y-129920000D01*
X92587142Y-129872380D01*
X92825238Y-129872380D01*
X92968095Y-129920000D01*
X93301428Y-129872380D02*
X93539523Y-130872380D01*
X93730000Y-130158095D01*
X93920476Y-130872380D01*
X94158571Y-129872380D01*
X94587142Y-130872380D02*
X94777619Y-130872380D01*
X94872857Y-130824761D01*
X94920476Y-130777142D01*
X95015714Y-130634285D01*
X95063333Y-130443809D01*
X95063333Y-130062857D01*
X95015714Y-129967619D01*
X94968095Y-129920000D01*
X94872857Y-129872380D01*
X94682380Y-129872380D01*
X94587142Y-129920000D01*
X94539523Y-129967619D01*
X94491904Y-130062857D01*
X94491904Y-130300952D01*
X94539523Y-130396190D01*
X94587142Y-130443809D01*
X94682380Y-130491428D01*
X94872857Y-130491428D01*
X94968095Y-130443809D01*
X95015714Y-130396190D01*
X95063333Y-130300952D01*
%TO.C,C22*%
X91287142Y-58497142D02*
X91239523Y-58544761D01*
X91096666Y-58592380D01*
X91001428Y-58592380D01*
X90858571Y-58544761D01*
X90763333Y-58449523D01*
X90715714Y-58354285D01*
X90668095Y-58163809D01*
X90668095Y-58020952D01*
X90715714Y-57830476D01*
X90763333Y-57735238D01*
X90858571Y-57640000D01*
X91001428Y-57592380D01*
X91096666Y-57592380D01*
X91239523Y-57640000D01*
X91287142Y-57687619D01*
X91668095Y-57687619D02*
X91715714Y-57640000D01*
X91810952Y-57592380D01*
X92049047Y-57592380D01*
X92144285Y-57640000D01*
X92191904Y-57687619D01*
X92239523Y-57782857D01*
X92239523Y-57878095D01*
X92191904Y-58020952D01*
X91620476Y-58592380D01*
X92239523Y-58592380D01*
X92620476Y-57687619D02*
X92668095Y-57640000D01*
X92763333Y-57592380D01*
X93001428Y-57592380D01*
X93096666Y-57640000D01*
X93144285Y-57687619D01*
X93191904Y-57782857D01*
X93191904Y-57878095D01*
X93144285Y-58020952D01*
X92572857Y-58592380D01*
X93191904Y-58592380D01*
%TO.C,SW2*%
X80386666Y-109934761D02*
X80529523Y-109982380D01*
X80767619Y-109982380D01*
X80862857Y-109934761D01*
X80910476Y-109887142D01*
X80958095Y-109791904D01*
X80958095Y-109696666D01*
X80910476Y-109601428D01*
X80862857Y-109553809D01*
X80767619Y-109506190D01*
X80577142Y-109458571D01*
X80481904Y-109410952D01*
X80434285Y-109363333D01*
X80386666Y-109268095D01*
X80386666Y-109172857D01*
X80434285Y-109077619D01*
X80481904Y-109030000D01*
X80577142Y-108982380D01*
X80815238Y-108982380D01*
X80958095Y-109030000D01*
X81291428Y-108982380D02*
X81529523Y-109982380D01*
X81720000Y-109268095D01*
X81910476Y-109982380D01*
X82148571Y-108982380D01*
X82481904Y-109077619D02*
X82529523Y-109030000D01*
X82624761Y-108982380D01*
X82862857Y-108982380D01*
X82958095Y-109030000D01*
X83005714Y-109077619D01*
X83053333Y-109172857D01*
X83053333Y-109268095D01*
X83005714Y-109410952D01*
X82434285Y-109982380D01*
X83053333Y-109982380D01*
%TO.C,SW13*%
X131990476Y-116854761D02*
X132133333Y-116902380D01*
X132371428Y-116902380D01*
X132466666Y-116854761D01*
X132514285Y-116807142D01*
X132561904Y-116711904D01*
X132561904Y-116616666D01*
X132514285Y-116521428D01*
X132466666Y-116473809D01*
X132371428Y-116426190D01*
X132180952Y-116378571D01*
X132085714Y-116330952D01*
X132038095Y-116283333D01*
X131990476Y-116188095D01*
X131990476Y-116092857D01*
X132038095Y-115997619D01*
X132085714Y-115950000D01*
X132180952Y-115902380D01*
X132419047Y-115902380D01*
X132561904Y-115950000D01*
X132895238Y-115902380D02*
X133133333Y-116902380D01*
X133323809Y-116188095D01*
X133514285Y-116902380D01*
X133752380Y-115902380D01*
X134657142Y-116902380D02*
X134085714Y-116902380D01*
X134371428Y-116902380D02*
X134371428Y-115902380D01*
X134276190Y-116045238D01*
X134180952Y-116140476D01*
X134085714Y-116188095D01*
X134990476Y-115902380D02*
X135609523Y-115902380D01*
X135276190Y-116283333D01*
X135419047Y-116283333D01*
X135514285Y-116330952D01*
X135561904Y-116378571D01*
X135609523Y-116473809D01*
X135609523Y-116711904D01*
X135561904Y-116807142D01*
X135514285Y-116854761D01*
X135419047Y-116902380D01*
X135133333Y-116902380D01*
X135038095Y-116854761D01*
X134990476Y-116807142D01*
%TO.C,C4*%
X61757142Y-55796666D02*
X61804761Y-55844285D01*
X61852380Y-55987142D01*
X61852380Y-56082380D01*
X61804761Y-56225238D01*
X61709523Y-56320476D01*
X61614285Y-56368095D01*
X61423809Y-56415714D01*
X61280952Y-56415714D01*
X61090476Y-56368095D01*
X60995238Y-56320476D01*
X60900000Y-56225238D01*
X60852380Y-56082380D01*
X60852380Y-55987142D01*
X60900000Y-55844285D01*
X60947619Y-55796666D01*
X61185714Y-54939523D02*
X61852380Y-54939523D01*
X60804761Y-55177619D02*
X61519047Y-55415714D01*
X61519047Y-54796666D01*
%TO.C,SW1*%
X92426666Y-141144761D02*
X92569523Y-141192380D01*
X92807619Y-141192380D01*
X92902857Y-141144761D01*
X92950476Y-141097142D01*
X92998095Y-141001904D01*
X92998095Y-140906666D01*
X92950476Y-140811428D01*
X92902857Y-140763809D01*
X92807619Y-140716190D01*
X92617142Y-140668571D01*
X92521904Y-140620952D01*
X92474285Y-140573333D01*
X92426666Y-140478095D01*
X92426666Y-140382857D01*
X92474285Y-140287619D01*
X92521904Y-140240000D01*
X92617142Y-140192380D01*
X92855238Y-140192380D01*
X92998095Y-140240000D01*
X93331428Y-140192380D02*
X93569523Y-141192380D01*
X93760000Y-140478095D01*
X93950476Y-141192380D01*
X94188571Y-140192380D01*
X95093333Y-141192380D02*
X94521904Y-141192380D01*
X94807619Y-141192380D02*
X94807619Y-140192380D01*
X94712380Y-140335238D01*
X94617142Y-140430476D01*
X94521904Y-140478095D01*
%TO.C,J3*%
X73236666Y-58297380D02*
X73236666Y-59011666D01*
X73189047Y-59154523D01*
X73093809Y-59249761D01*
X72950952Y-59297380D01*
X72855714Y-59297380D01*
X73617619Y-58297380D02*
X74236666Y-58297380D01*
X73903333Y-58678333D01*
X74046190Y-58678333D01*
X74141428Y-58725952D01*
X74189047Y-58773571D01*
X74236666Y-58868809D01*
X74236666Y-59106904D01*
X74189047Y-59202142D01*
X74141428Y-59249761D01*
X74046190Y-59297380D01*
X73760476Y-59297380D01*
X73665238Y-59249761D01*
X73617619Y-59202142D01*
%TO.C,C3*%
X60453333Y-77317142D02*
X60405714Y-77364761D01*
X60262857Y-77412380D01*
X60167619Y-77412380D01*
X60024761Y-77364761D01*
X59929523Y-77269523D01*
X59881904Y-77174285D01*
X59834285Y-76983809D01*
X59834285Y-76840952D01*
X59881904Y-76650476D01*
X59929523Y-76555238D01*
X60024761Y-76460000D01*
X60167619Y-76412380D01*
X60262857Y-76412380D01*
X60405714Y-76460000D01*
X60453333Y-76507619D01*
X60786666Y-76412380D02*
X61405714Y-76412380D01*
X61072380Y-76793333D01*
X61215238Y-76793333D01*
X61310476Y-76840952D01*
X61358095Y-76888571D01*
X61405714Y-76983809D01*
X61405714Y-77221904D01*
X61358095Y-77317142D01*
X61310476Y-77364761D01*
X61215238Y-77412380D01*
X60929523Y-77412380D01*
X60834285Y-77364761D01*
X60786666Y-77317142D01*
%TO.C,D1*%
X132911904Y-63702380D02*
X132911904Y-62702380D01*
X133150000Y-62702380D01*
X133292857Y-62750000D01*
X133388095Y-62845238D01*
X133435714Y-62940476D01*
X133483333Y-63130952D01*
X133483333Y-63273809D01*
X133435714Y-63464285D01*
X133388095Y-63559523D01*
X133292857Y-63654761D01*
X133150000Y-63702380D01*
X132911904Y-63702380D01*
X134435714Y-63702380D02*
X133864285Y-63702380D01*
X134150000Y-63702380D02*
X134150000Y-62702380D01*
X134054761Y-62845238D01*
X133959523Y-62940476D01*
X133864285Y-62988095D01*
%TO.C,SW14*%
X119280476Y-126834761D02*
X119423333Y-126882380D01*
X119661428Y-126882380D01*
X119756666Y-126834761D01*
X119804285Y-126787142D01*
X119851904Y-126691904D01*
X119851904Y-126596666D01*
X119804285Y-126501428D01*
X119756666Y-126453809D01*
X119661428Y-126406190D01*
X119470952Y-126358571D01*
X119375714Y-126310952D01*
X119328095Y-126263333D01*
X119280476Y-126168095D01*
X119280476Y-126072857D01*
X119328095Y-125977619D01*
X119375714Y-125930000D01*
X119470952Y-125882380D01*
X119709047Y-125882380D01*
X119851904Y-125930000D01*
X120185238Y-125882380D02*
X120423333Y-126882380D01*
X120613809Y-126168095D01*
X120804285Y-126882380D01*
X121042380Y-125882380D01*
X121947142Y-126882380D02*
X121375714Y-126882380D01*
X121661428Y-126882380D02*
X121661428Y-125882380D01*
X121566190Y-126025238D01*
X121470952Y-126120476D01*
X121375714Y-126168095D01*
X122804285Y-126215714D02*
X122804285Y-126882380D01*
X122566190Y-125834761D02*
X122328095Y-126549047D01*
X122947142Y-126549047D01*
%TO.C,J8*%
X144826666Y-76982380D02*
X144826666Y-77696666D01*
X144779047Y-77839523D01*
X144683809Y-77934761D01*
X144540952Y-77982380D01*
X144445714Y-77982380D01*
X145445714Y-77410952D02*
X145350476Y-77363333D01*
X145302857Y-77315714D01*
X145255238Y-77220476D01*
X145255238Y-77172857D01*
X145302857Y-77077619D01*
X145350476Y-77030000D01*
X145445714Y-76982380D01*
X145636190Y-76982380D01*
X145731428Y-77030000D01*
X145779047Y-77077619D01*
X145826666Y-77172857D01*
X145826666Y-77220476D01*
X145779047Y-77315714D01*
X145731428Y-77363333D01*
X145636190Y-77410952D01*
X145445714Y-77410952D01*
X145350476Y-77458571D01*
X145302857Y-77506190D01*
X145255238Y-77601428D01*
X145255238Y-77791904D01*
X145302857Y-77887142D01*
X145350476Y-77934761D01*
X145445714Y-77982380D01*
X145636190Y-77982380D01*
X145731428Y-77934761D01*
X145779047Y-77887142D01*
X145826666Y-77791904D01*
X145826666Y-77601428D01*
X145779047Y-77506190D01*
X145731428Y-77458571D01*
X145636190Y-77410952D01*
%TO.C,R12*%
X126992380Y-59032857D02*
X126516190Y-59366190D01*
X126992380Y-59604285D02*
X125992380Y-59604285D01*
X125992380Y-59223333D01*
X126040000Y-59128095D01*
X126087619Y-59080476D01*
X126182857Y-59032857D01*
X126325714Y-59032857D01*
X126420952Y-59080476D01*
X126468571Y-59128095D01*
X126516190Y-59223333D01*
X126516190Y-59604285D01*
X126992380Y-58080476D02*
X126992380Y-58651904D01*
X126992380Y-58366190D02*
X125992380Y-58366190D01*
X126135238Y-58461428D01*
X126230476Y-58556666D01*
X126278095Y-58651904D01*
X126087619Y-57699523D02*
X126040000Y-57651904D01*
X125992380Y-57556666D01*
X125992380Y-57318571D01*
X126040000Y-57223333D01*
X126087619Y-57175714D01*
X126182857Y-57128095D01*
X126278095Y-57128095D01*
X126420952Y-57175714D01*
X126992380Y-57747142D01*
X126992380Y-57128095D01*
%TO.C,SW16*%
X131500476Y-136874761D02*
X131643333Y-136922380D01*
X131881428Y-136922380D01*
X131976666Y-136874761D01*
X132024285Y-136827142D01*
X132071904Y-136731904D01*
X132071904Y-136636666D01*
X132024285Y-136541428D01*
X131976666Y-136493809D01*
X131881428Y-136446190D01*
X131690952Y-136398571D01*
X131595714Y-136350952D01*
X131548095Y-136303333D01*
X131500476Y-136208095D01*
X131500476Y-136112857D01*
X131548095Y-136017619D01*
X131595714Y-135970000D01*
X131690952Y-135922380D01*
X131929047Y-135922380D01*
X132071904Y-135970000D01*
X132405238Y-135922380D02*
X132643333Y-136922380D01*
X132833809Y-136208095D01*
X133024285Y-136922380D01*
X133262380Y-135922380D01*
X134167142Y-136922380D02*
X133595714Y-136922380D01*
X133881428Y-136922380D02*
X133881428Y-135922380D01*
X133786190Y-136065238D01*
X133690952Y-136160476D01*
X133595714Y-136208095D01*
X135024285Y-135922380D02*
X134833809Y-135922380D01*
X134738571Y-135970000D01*
X134690952Y-136017619D01*
X134595714Y-136160476D01*
X134548095Y-136350952D01*
X134548095Y-136731904D01*
X134595714Y-136827142D01*
X134643333Y-136874761D01*
X134738571Y-136922380D01*
X134929047Y-136922380D01*
X135024285Y-136874761D01*
X135071904Y-136827142D01*
X135119523Y-136731904D01*
X135119523Y-136493809D01*
X135071904Y-136398571D01*
X135024285Y-136350952D01*
X134929047Y-136303333D01*
X134738571Y-136303333D01*
X134643333Y-136350952D01*
X134595714Y-136398571D01*
X134548095Y-136493809D01*
%TO.C,D2*%
X132881904Y-56932380D02*
X132881904Y-55932380D01*
X133120000Y-55932380D01*
X133262857Y-55980000D01*
X133358095Y-56075238D01*
X133405714Y-56170476D01*
X133453333Y-56360952D01*
X133453333Y-56503809D01*
X133405714Y-56694285D01*
X133358095Y-56789523D01*
X133262857Y-56884761D01*
X133120000Y-56932380D01*
X132881904Y-56932380D01*
X133834285Y-56027619D02*
X133881904Y-55980000D01*
X133977142Y-55932380D01*
X134215238Y-55932380D01*
X134310476Y-55980000D01*
X134358095Y-56027619D01*
X134405714Y-56122857D01*
X134405714Y-56218095D01*
X134358095Y-56360952D01*
X133786666Y-56932380D01*
X134405714Y-56932380D01*
%TO.C,U2*%
X65708095Y-88262380D02*
X65708095Y-89071904D01*
X65755714Y-89167142D01*
X65803333Y-89214761D01*
X65898571Y-89262380D01*
X66089047Y-89262380D01*
X66184285Y-89214761D01*
X66231904Y-89167142D01*
X66279523Y-89071904D01*
X66279523Y-88262380D01*
X66708095Y-88357619D02*
X66755714Y-88310000D01*
X66850952Y-88262380D01*
X67089047Y-88262380D01*
X67184285Y-88310000D01*
X67231904Y-88357619D01*
X67279523Y-88452857D01*
X67279523Y-88548095D01*
X67231904Y-88690952D01*
X66660476Y-89262380D01*
X67279523Y-89262380D01*
%TO.C,R7*%
X84852380Y-95326666D02*
X84376190Y-95660000D01*
X84852380Y-95898095D02*
X83852380Y-95898095D01*
X83852380Y-95517142D01*
X83900000Y-95421904D01*
X83947619Y-95374285D01*
X84042857Y-95326666D01*
X84185714Y-95326666D01*
X84280952Y-95374285D01*
X84328571Y-95421904D01*
X84376190Y-95517142D01*
X84376190Y-95898095D01*
X83852380Y-94993333D02*
X83852380Y-94326666D01*
X84852380Y-94755238D01*
%TO.C,C11*%
X110217142Y-94602857D02*
X110264761Y-94650476D01*
X110312380Y-94793333D01*
X110312380Y-94888571D01*
X110264761Y-95031428D01*
X110169523Y-95126666D01*
X110074285Y-95174285D01*
X109883809Y-95221904D01*
X109740952Y-95221904D01*
X109550476Y-95174285D01*
X109455238Y-95126666D01*
X109360000Y-95031428D01*
X109312380Y-94888571D01*
X109312380Y-94793333D01*
X109360000Y-94650476D01*
X109407619Y-94602857D01*
X110312380Y-93650476D02*
X110312380Y-94221904D01*
X110312380Y-93936190D02*
X109312380Y-93936190D01*
X109455238Y-94031428D01*
X109550476Y-94126666D01*
X109598095Y-94221904D01*
X110312380Y-92698095D02*
X110312380Y-93269523D01*
X110312380Y-92983809D02*
X109312380Y-92983809D01*
X109455238Y-93079047D01*
X109550476Y-93174285D01*
X109598095Y-93269523D01*
%TO.C,SW18*%
X131440476Y-126844761D02*
X131583333Y-126892380D01*
X131821428Y-126892380D01*
X131916666Y-126844761D01*
X131964285Y-126797142D01*
X132011904Y-126701904D01*
X132011904Y-126606666D01*
X131964285Y-126511428D01*
X131916666Y-126463809D01*
X131821428Y-126416190D01*
X131630952Y-126368571D01*
X131535714Y-126320952D01*
X131488095Y-126273333D01*
X131440476Y-126178095D01*
X131440476Y-126082857D01*
X131488095Y-125987619D01*
X131535714Y-125940000D01*
X131630952Y-125892380D01*
X131869047Y-125892380D01*
X132011904Y-125940000D01*
X132345238Y-125892380D02*
X132583333Y-126892380D01*
X132773809Y-126178095D01*
X132964285Y-126892380D01*
X133202380Y-125892380D01*
X134107142Y-126892380D02*
X133535714Y-126892380D01*
X133821428Y-126892380D02*
X133821428Y-125892380D01*
X133726190Y-126035238D01*
X133630952Y-126130476D01*
X133535714Y-126178095D01*
X134678571Y-126320952D02*
X134583333Y-126273333D01*
X134535714Y-126225714D01*
X134488095Y-126130476D01*
X134488095Y-126082857D01*
X134535714Y-125987619D01*
X134583333Y-125940000D01*
X134678571Y-125892380D01*
X134869047Y-125892380D01*
X134964285Y-125940000D01*
X135011904Y-125987619D01*
X135059523Y-126082857D01*
X135059523Y-126130476D01*
X135011904Y-126225714D01*
X134964285Y-126273333D01*
X134869047Y-126320952D01*
X134678571Y-126320952D01*
X134583333Y-126368571D01*
X134535714Y-126416190D01*
X134488095Y-126511428D01*
X134488095Y-126701904D01*
X134535714Y-126797142D01*
X134583333Y-126844761D01*
X134678571Y-126892380D01*
X134869047Y-126892380D01*
X134964285Y-126844761D01*
X135011904Y-126797142D01*
X135059523Y-126701904D01*
X135059523Y-126511428D01*
X135011904Y-126416190D01*
X134964285Y-126368571D01*
X134869047Y-126320952D01*
%TO.C,C1*%
X86087142Y-67576666D02*
X86134761Y-67624285D01*
X86182380Y-67767142D01*
X86182380Y-67862380D01*
X86134761Y-68005238D01*
X86039523Y-68100476D01*
X85944285Y-68148095D01*
X85753809Y-68195714D01*
X85610952Y-68195714D01*
X85420476Y-68148095D01*
X85325238Y-68100476D01*
X85230000Y-68005238D01*
X85182380Y-67862380D01*
X85182380Y-67767142D01*
X85230000Y-67624285D01*
X85277619Y-67576666D01*
X86182380Y-66624285D02*
X86182380Y-67195714D01*
X86182380Y-66910000D02*
X85182380Y-66910000D01*
X85325238Y-67005238D01*
X85420476Y-67100476D01*
X85468095Y-67195714D01*
%TO.C,U4*%
X88552380Y-59391904D02*
X89361904Y-59391904D01*
X89457142Y-59344285D01*
X89504761Y-59296666D01*
X89552380Y-59201428D01*
X89552380Y-59010952D01*
X89504761Y-58915714D01*
X89457142Y-58868095D01*
X89361904Y-58820476D01*
X88552380Y-58820476D01*
X88885714Y-57915714D02*
X89552380Y-57915714D01*
X88504761Y-58153809D02*
X89219047Y-58391904D01*
X89219047Y-57772857D01*
%TO.C,J11*%
X144322380Y-71169523D02*
X145036666Y-71169523D01*
X145179523Y-71217142D01*
X145274761Y-71312380D01*
X145322380Y-71455238D01*
X145322380Y-71550476D01*
X145322380Y-70169523D02*
X145322380Y-70740952D01*
X145322380Y-70455238D02*
X144322380Y-70455238D01*
X144465238Y-70550476D01*
X144560476Y-70645714D01*
X144608095Y-70740952D01*
X145322380Y-69217142D02*
X145322380Y-69788571D01*
X145322380Y-69502857D02*
X144322380Y-69502857D01*
X144465238Y-69598095D01*
X144560476Y-69693333D01*
X144608095Y-69788571D01*
%TO.C,R3*%
X75342380Y-95206666D02*
X74866190Y-95540000D01*
X75342380Y-95778095D02*
X74342380Y-95778095D01*
X74342380Y-95397142D01*
X74390000Y-95301904D01*
X74437619Y-95254285D01*
X74532857Y-95206666D01*
X74675714Y-95206666D01*
X74770952Y-95254285D01*
X74818571Y-95301904D01*
X74866190Y-95397142D01*
X74866190Y-95778095D01*
X74342380Y-94873333D02*
X74342380Y-94254285D01*
X74723333Y-94587619D01*
X74723333Y-94444761D01*
X74770952Y-94349523D01*
X74818571Y-94301904D01*
X74913809Y-94254285D01*
X75151904Y-94254285D01*
X75247142Y-94301904D01*
X75294761Y-94349523D01*
X75342380Y-94444761D01*
X75342380Y-94730476D01*
X75294761Y-94825714D01*
X75247142Y-94873333D01*
%TO.C,Q6*%
X93854761Y-73057619D02*
X93759523Y-73010000D01*
X93664285Y-72914761D01*
X93521428Y-72771904D01*
X93426190Y-72724285D01*
X93330952Y-72724285D01*
X93378571Y-72962380D02*
X93283333Y-72914761D01*
X93188095Y-72819523D01*
X93140476Y-72629047D01*
X93140476Y-72295714D01*
X93188095Y-72105238D01*
X93283333Y-72010000D01*
X93378571Y-71962380D01*
X93569047Y-71962380D01*
X93664285Y-72010000D01*
X93759523Y-72105238D01*
X93807142Y-72295714D01*
X93807142Y-72629047D01*
X93759523Y-72819523D01*
X93664285Y-72914761D01*
X93569047Y-72962380D01*
X93378571Y-72962380D01*
X94664285Y-71962380D02*
X94473809Y-71962380D01*
X94378571Y-72010000D01*
X94330952Y-72057619D01*
X94235714Y-72200476D01*
X94188095Y-72390952D01*
X94188095Y-72771904D01*
X94235714Y-72867142D01*
X94283333Y-72914761D01*
X94378571Y-72962380D01*
X94569047Y-72962380D01*
X94664285Y-72914761D01*
X94711904Y-72867142D01*
X94759523Y-72771904D01*
X94759523Y-72533809D01*
X94711904Y-72438571D01*
X94664285Y-72390952D01*
X94569047Y-72343333D01*
X94378571Y-72343333D01*
X94283333Y-72390952D01*
X94235714Y-72438571D01*
X94188095Y-72533809D01*
%TO.C,R8*%
X87162380Y-95326666D02*
X86686190Y-95660000D01*
X87162380Y-95898095D02*
X86162380Y-95898095D01*
X86162380Y-95517142D01*
X86210000Y-95421904D01*
X86257619Y-95374285D01*
X86352857Y-95326666D01*
X86495714Y-95326666D01*
X86590952Y-95374285D01*
X86638571Y-95421904D01*
X86686190Y-95517142D01*
X86686190Y-95898095D01*
X86590952Y-94755238D02*
X86543333Y-94850476D01*
X86495714Y-94898095D01*
X86400476Y-94945714D01*
X86352857Y-94945714D01*
X86257619Y-94898095D01*
X86210000Y-94850476D01*
X86162380Y-94755238D01*
X86162380Y-94564761D01*
X86210000Y-94469523D01*
X86257619Y-94421904D01*
X86352857Y-94374285D01*
X86400476Y-94374285D01*
X86495714Y-94421904D01*
X86543333Y-94469523D01*
X86590952Y-94564761D01*
X86590952Y-94755238D01*
X86638571Y-94850476D01*
X86686190Y-94898095D01*
X86781428Y-94945714D01*
X86971904Y-94945714D01*
X87067142Y-94898095D01*
X87114761Y-94850476D01*
X87162380Y-94755238D01*
X87162380Y-94564761D01*
X87114761Y-94469523D01*
X87067142Y-94421904D01*
X86971904Y-94374285D01*
X86781428Y-94374285D01*
X86686190Y-94421904D01*
X86638571Y-94469523D01*
X86590952Y-94564761D01*
%TO.C,SW5*%
X80336666Y-120364761D02*
X80479523Y-120412380D01*
X80717619Y-120412380D01*
X80812857Y-120364761D01*
X80860476Y-120317142D01*
X80908095Y-120221904D01*
X80908095Y-120126666D01*
X80860476Y-120031428D01*
X80812857Y-119983809D01*
X80717619Y-119936190D01*
X80527142Y-119888571D01*
X80431904Y-119840952D01*
X80384285Y-119793333D01*
X80336666Y-119698095D01*
X80336666Y-119602857D01*
X80384285Y-119507619D01*
X80431904Y-119460000D01*
X80527142Y-119412380D01*
X80765238Y-119412380D01*
X80908095Y-119460000D01*
X81241428Y-119412380D02*
X81479523Y-120412380D01*
X81670000Y-119698095D01*
X81860476Y-120412380D01*
X82098571Y-119412380D01*
X82955714Y-119412380D02*
X82479523Y-119412380D01*
X82431904Y-119888571D01*
X82479523Y-119840952D01*
X82574761Y-119793333D01*
X82812857Y-119793333D01*
X82908095Y-119840952D01*
X82955714Y-119888571D01*
X83003333Y-119983809D01*
X83003333Y-120221904D01*
X82955714Y-120317142D01*
X82908095Y-120364761D01*
X82812857Y-120412380D01*
X82574761Y-120412380D01*
X82479523Y-120364761D01*
X82431904Y-120317142D01*
%TO.C,SW6*%
X92316666Y-120354761D02*
X92459523Y-120402380D01*
X92697619Y-120402380D01*
X92792857Y-120354761D01*
X92840476Y-120307142D01*
X92888095Y-120211904D01*
X92888095Y-120116666D01*
X92840476Y-120021428D01*
X92792857Y-119973809D01*
X92697619Y-119926190D01*
X92507142Y-119878571D01*
X92411904Y-119830952D01*
X92364285Y-119783333D01*
X92316666Y-119688095D01*
X92316666Y-119592857D01*
X92364285Y-119497619D01*
X92411904Y-119450000D01*
X92507142Y-119402380D01*
X92745238Y-119402380D01*
X92888095Y-119450000D01*
X93221428Y-119402380D02*
X93459523Y-120402380D01*
X93650000Y-119688095D01*
X93840476Y-120402380D01*
X94078571Y-119402380D01*
X94888095Y-119402380D02*
X94697619Y-119402380D01*
X94602380Y-119450000D01*
X94554761Y-119497619D01*
X94459523Y-119640476D01*
X94411904Y-119830952D01*
X94411904Y-120211904D01*
X94459523Y-120307142D01*
X94507142Y-120354761D01*
X94602380Y-120402380D01*
X94792857Y-120402380D01*
X94888095Y-120354761D01*
X94935714Y-120307142D01*
X94983333Y-120211904D01*
X94983333Y-119973809D01*
X94935714Y-119878571D01*
X94888095Y-119830952D01*
X94792857Y-119783333D01*
X94602380Y-119783333D01*
X94507142Y-119830952D01*
X94459523Y-119878571D01*
X94411904Y-119973809D01*
%TO.C,R4*%
X77612380Y-95146666D02*
X77136190Y-95480000D01*
X77612380Y-95718095D02*
X76612380Y-95718095D01*
X76612380Y-95337142D01*
X76660000Y-95241904D01*
X76707619Y-95194285D01*
X76802857Y-95146666D01*
X76945714Y-95146666D01*
X77040952Y-95194285D01*
X77088571Y-95241904D01*
X77136190Y-95337142D01*
X77136190Y-95718095D01*
X76945714Y-94289523D02*
X77612380Y-94289523D01*
X76564761Y-94527619D02*
X77279047Y-94765714D01*
X77279047Y-94146666D01*
%TO.C,J9*%
X141777380Y-117743333D02*
X142491666Y-117743333D01*
X142634523Y-117790952D01*
X142729761Y-117886190D01*
X142777380Y-118029047D01*
X142777380Y-118124285D01*
X142777380Y-117219523D02*
X142777380Y-117029047D01*
X142729761Y-116933809D01*
X142682142Y-116886190D01*
X142539285Y-116790952D01*
X142348809Y-116743333D01*
X141967857Y-116743333D01*
X141872619Y-116790952D01*
X141825000Y-116838571D01*
X141777380Y-116933809D01*
X141777380Y-117124285D01*
X141825000Y-117219523D01*
X141872619Y-117267142D01*
X141967857Y-117314761D01*
X142205952Y-117314761D01*
X142301190Y-117267142D01*
X142348809Y-117219523D01*
X142396428Y-117124285D01*
X142396428Y-116933809D01*
X142348809Y-116838571D01*
X142301190Y-116790952D01*
X142205952Y-116743333D01*
%TO.C,R2*%
X72792380Y-95126666D02*
X72316190Y-95460000D01*
X72792380Y-95698095D02*
X71792380Y-95698095D01*
X71792380Y-95317142D01*
X71840000Y-95221904D01*
X71887619Y-95174285D01*
X71982857Y-95126666D01*
X72125714Y-95126666D01*
X72220952Y-95174285D01*
X72268571Y-95221904D01*
X72316190Y-95317142D01*
X72316190Y-95698095D01*
X71887619Y-94745714D02*
X71840000Y-94698095D01*
X71792380Y-94602857D01*
X71792380Y-94364761D01*
X71840000Y-94269523D01*
X71887619Y-94221904D01*
X71982857Y-94174285D01*
X72078095Y-94174285D01*
X72220952Y-94221904D01*
X72792380Y-94793333D01*
X72792380Y-94174285D01*
%TO.C,C16*%
X114177142Y-75047142D02*
X114129523Y-75094761D01*
X113986666Y-75142380D01*
X113891428Y-75142380D01*
X113748571Y-75094761D01*
X113653333Y-74999523D01*
X113605714Y-74904285D01*
X113558095Y-74713809D01*
X113558095Y-74570952D01*
X113605714Y-74380476D01*
X113653333Y-74285238D01*
X113748571Y-74190000D01*
X113891428Y-74142380D01*
X113986666Y-74142380D01*
X114129523Y-74190000D01*
X114177142Y-74237619D01*
X115129523Y-75142380D02*
X114558095Y-75142380D01*
X114843809Y-75142380D02*
X114843809Y-74142380D01*
X114748571Y-74285238D01*
X114653333Y-74380476D01*
X114558095Y-74428095D01*
X115986666Y-74142380D02*
X115796190Y-74142380D01*
X115700952Y-74190000D01*
X115653333Y-74237619D01*
X115558095Y-74380476D01*
X115510476Y-74570952D01*
X115510476Y-74951904D01*
X115558095Y-75047142D01*
X115605714Y-75094761D01*
X115700952Y-75142380D01*
X115891428Y-75142380D01*
X115986666Y-75094761D01*
X116034285Y-75047142D01*
X116081904Y-74951904D01*
X116081904Y-74713809D01*
X116034285Y-74618571D01*
X115986666Y-74570952D01*
X115891428Y-74523333D01*
X115700952Y-74523333D01*
X115605714Y-74570952D01*
X115558095Y-74618571D01*
X115510476Y-74713809D01*
%TO.C,SW7*%
X104346666Y-120354761D02*
X104489523Y-120402380D01*
X104727619Y-120402380D01*
X104822857Y-120354761D01*
X104870476Y-120307142D01*
X104918095Y-120211904D01*
X104918095Y-120116666D01*
X104870476Y-120021428D01*
X104822857Y-119973809D01*
X104727619Y-119926190D01*
X104537142Y-119878571D01*
X104441904Y-119830952D01*
X104394285Y-119783333D01*
X104346666Y-119688095D01*
X104346666Y-119592857D01*
X104394285Y-119497619D01*
X104441904Y-119450000D01*
X104537142Y-119402380D01*
X104775238Y-119402380D01*
X104918095Y-119450000D01*
X105251428Y-119402380D02*
X105489523Y-120402380D01*
X105680000Y-119688095D01*
X105870476Y-120402380D01*
X106108571Y-119402380D01*
X106394285Y-119402380D02*
X107060952Y-119402380D01*
X106632380Y-120402380D01*
%TO.C,C24*%
X83047142Y-85927142D02*
X82999523Y-85974761D01*
X82856666Y-86022380D01*
X82761428Y-86022380D01*
X82618571Y-85974761D01*
X82523333Y-85879523D01*
X82475714Y-85784285D01*
X82428095Y-85593809D01*
X82428095Y-85450952D01*
X82475714Y-85260476D01*
X82523333Y-85165238D01*
X82618571Y-85070000D01*
X82761428Y-85022380D01*
X82856666Y-85022380D01*
X82999523Y-85070000D01*
X83047142Y-85117619D01*
X83428095Y-85117619D02*
X83475714Y-85070000D01*
X83570952Y-85022380D01*
X83809047Y-85022380D01*
X83904285Y-85070000D01*
X83951904Y-85117619D01*
X83999523Y-85212857D01*
X83999523Y-85308095D01*
X83951904Y-85450952D01*
X83380476Y-86022380D01*
X83999523Y-86022380D01*
X84856666Y-85355714D02*
X84856666Y-86022380D01*
X84618571Y-84974761D02*
X84380476Y-85689047D01*
X84999523Y-85689047D01*
%TO.C,J10*%
X108172380Y-56099523D02*
X108886666Y-56099523D01*
X109029523Y-56147142D01*
X109124761Y-56242380D01*
X109172380Y-56385238D01*
X109172380Y-56480476D01*
X109172380Y-55099523D02*
X109172380Y-55670952D01*
X109172380Y-55385238D02*
X108172380Y-55385238D01*
X108315238Y-55480476D01*
X108410476Y-55575714D01*
X108458095Y-55670952D01*
X108172380Y-54480476D02*
X108172380Y-54385238D01*
X108220000Y-54290000D01*
X108267619Y-54242380D01*
X108362857Y-54194761D01*
X108553333Y-54147142D01*
X108791428Y-54147142D01*
X108981904Y-54194761D01*
X109077142Y-54242380D01*
X109124761Y-54290000D01*
X109172380Y-54385238D01*
X109172380Y-54480476D01*
X109124761Y-54575714D01*
X109077142Y-54623333D01*
X108981904Y-54670952D01*
X108791428Y-54718571D01*
X108553333Y-54718571D01*
X108362857Y-54670952D01*
X108267619Y-54623333D01*
X108220000Y-54575714D01*
X108172380Y-54480476D01*
%TO.C,SW11*%
X79970476Y-141174761D02*
X80113333Y-141222380D01*
X80351428Y-141222380D01*
X80446666Y-141174761D01*
X80494285Y-141127142D01*
X80541904Y-141031904D01*
X80541904Y-140936666D01*
X80494285Y-140841428D01*
X80446666Y-140793809D01*
X80351428Y-140746190D01*
X80160952Y-140698571D01*
X80065714Y-140650952D01*
X80018095Y-140603333D01*
X79970476Y-140508095D01*
X79970476Y-140412857D01*
X80018095Y-140317619D01*
X80065714Y-140270000D01*
X80160952Y-140222380D01*
X80399047Y-140222380D01*
X80541904Y-140270000D01*
X80875238Y-140222380D02*
X81113333Y-141222380D01*
X81303809Y-140508095D01*
X81494285Y-141222380D01*
X81732380Y-140222380D01*
X82637142Y-141222380D02*
X82065714Y-141222380D01*
X82351428Y-141222380D02*
X82351428Y-140222380D01*
X82256190Y-140365238D01*
X82160952Y-140460476D01*
X82065714Y-140508095D01*
X83589523Y-141222380D02*
X83018095Y-141222380D01*
X83303809Y-141222380D02*
X83303809Y-140222380D01*
X83208571Y-140365238D01*
X83113333Y-140460476D01*
X83018095Y-140508095D01*
%TO.C,R16*%
X127442380Y-93472857D02*
X126966190Y-93806190D01*
X127442380Y-94044285D02*
X126442380Y-94044285D01*
X126442380Y-93663333D01*
X126490000Y-93568095D01*
X126537619Y-93520476D01*
X126632857Y-93472857D01*
X126775714Y-93472857D01*
X126870952Y-93520476D01*
X126918571Y-93568095D01*
X126966190Y-93663333D01*
X126966190Y-94044285D01*
X127442380Y-92520476D02*
X127442380Y-93091904D01*
X127442380Y-92806190D02*
X126442380Y-92806190D01*
X126585238Y-92901428D01*
X126680476Y-92996666D01*
X126728095Y-93091904D01*
X126442380Y-91663333D02*
X126442380Y-91853809D01*
X126490000Y-91949047D01*
X126537619Y-91996666D01*
X126680476Y-92091904D01*
X126870952Y-92139523D01*
X127251904Y-92139523D01*
X127347142Y-92091904D01*
X127394761Y-92044285D01*
X127442380Y-91949047D01*
X127442380Y-91758571D01*
X127394761Y-91663333D01*
X127347142Y-91615714D01*
X127251904Y-91568095D01*
X127013809Y-91568095D01*
X126918571Y-91615714D01*
X126870952Y-91663333D01*
X126823333Y-91758571D01*
X126823333Y-91949047D01*
X126870952Y-92044285D01*
X126918571Y-92091904D01*
X127013809Y-92139523D01*
%TO.C,SW10*%
X103950476Y-130754761D02*
X104093333Y-130802380D01*
X104331428Y-130802380D01*
X104426666Y-130754761D01*
X104474285Y-130707142D01*
X104521904Y-130611904D01*
X104521904Y-130516666D01*
X104474285Y-130421428D01*
X104426666Y-130373809D01*
X104331428Y-130326190D01*
X104140952Y-130278571D01*
X104045714Y-130230952D01*
X103998095Y-130183333D01*
X103950476Y-130088095D01*
X103950476Y-129992857D01*
X103998095Y-129897619D01*
X104045714Y-129850000D01*
X104140952Y-129802380D01*
X104379047Y-129802380D01*
X104521904Y-129850000D01*
X104855238Y-129802380D02*
X105093333Y-130802380D01*
X105283809Y-130088095D01*
X105474285Y-130802380D01*
X105712380Y-129802380D01*
X106617142Y-130802380D02*
X106045714Y-130802380D01*
X106331428Y-130802380D02*
X106331428Y-129802380D01*
X106236190Y-129945238D01*
X106140952Y-130040476D01*
X106045714Y-130088095D01*
X107236190Y-129802380D02*
X107331428Y-129802380D01*
X107426666Y-129850000D01*
X107474285Y-129897619D01*
X107521904Y-129992857D01*
X107569523Y-130183333D01*
X107569523Y-130421428D01*
X107521904Y-130611904D01*
X107474285Y-130707142D01*
X107426666Y-130754761D01*
X107331428Y-130802380D01*
X107236190Y-130802380D01*
X107140952Y-130754761D01*
X107093333Y-130707142D01*
X107045714Y-130611904D01*
X106998095Y-130421428D01*
X106998095Y-130183333D01*
X107045714Y-129992857D01*
X107093333Y-129897619D01*
X107140952Y-129850000D01*
X107236190Y-129802380D01*
%TO.C,R11*%
X127022380Y-66982857D02*
X126546190Y-67316190D01*
X127022380Y-67554285D02*
X126022380Y-67554285D01*
X126022380Y-67173333D01*
X126070000Y-67078095D01*
X126117619Y-67030476D01*
X126212857Y-66982857D01*
X126355714Y-66982857D01*
X126450952Y-67030476D01*
X126498571Y-67078095D01*
X126546190Y-67173333D01*
X126546190Y-67554285D01*
X127022380Y-66030476D02*
X127022380Y-66601904D01*
X127022380Y-66316190D02*
X126022380Y-66316190D01*
X126165238Y-66411428D01*
X126260476Y-66506666D01*
X126308095Y-66601904D01*
X127022380Y-65078095D02*
X127022380Y-65649523D01*
X127022380Y-65363809D02*
X126022380Y-65363809D01*
X126165238Y-65459047D01*
X126260476Y-65554285D01*
X126308095Y-65649523D01*
%TO.C,R1*%
X70362380Y-95126666D02*
X69886190Y-95460000D01*
X70362380Y-95698095D02*
X69362380Y-95698095D01*
X69362380Y-95317142D01*
X69410000Y-95221904D01*
X69457619Y-95174285D01*
X69552857Y-95126666D01*
X69695714Y-95126666D01*
X69790952Y-95174285D01*
X69838571Y-95221904D01*
X69886190Y-95317142D01*
X69886190Y-95698095D01*
X70362380Y-94174285D02*
X70362380Y-94745714D01*
X70362380Y-94460000D02*
X69362380Y-94460000D01*
X69505238Y-94555238D01*
X69600476Y-94650476D01*
X69648095Y-94745714D01*
D11*
%TO.C,J7*%
X132960000Y-52640000D02*
X139020000Y-52640000D01*
X139020000Y-52640000D02*
X139020000Y-50520000D01*
X130900000Y-51580000D02*
X130900000Y-50520000D01*
X132960000Y-50520000D02*
X139020000Y-50520000D01*
X130900000Y-50520000D02*
X131960000Y-50520000D01*
X132960000Y-52640000D02*
X132960000Y-50520000D01*
%TO.C,C26*%
X85940000Y-81539420D02*
X85940000Y-81820580D01*
X84920000Y-81539420D02*
X84920000Y-81820580D01*
%TO.C,SW3*%
X96020000Y-110510000D02*
X91520000Y-110510000D01*
X91520000Y-117010000D02*
X96020000Y-117010000D01*
X97270000Y-114510000D02*
X97270000Y-113010000D01*
X90270000Y-113010000D02*
X90270000Y-114510000D01*
%TO.C,C18*%
X133699420Y-97190000D02*
X133980580Y-97190000D01*
X133699420Y-98210000D02*
X133980580Y-98210000D01*
%TO.C,R5*%
X79267500Y-97332742D02*
X79267500Y-97807258D01*
X80312500Y-97332742D02*
X80312500Y-97807258D01*
%TO.C,C2*%
X60750580Y-71150000D02*
X60469420Y-71150000D01*
X60750580Y-70130000D02*
X60469420Y-70130000D01*
%TO.C,SW8*%
X79450000Y-137940000D02*
X83950000Y-137940000D01*
X83950000Y-131440000D02*
X79450000Y-131440000D01*
X78200000Y-133940000D02*
X78200000Y-135440000D01*
X85200000Y-135440000D02*
X85200000Y-133940000D01*
%TO.C,C14*%
X137540000Y-54469420D02*
X137540000Y-54750580D01*
X138560000Y-54469420D02*
X138560000Y-54750580D01*
%TO.C,R17*%
X126132742Y-90252500D02*
X126607258Y-90252500D01*
X126132742Y-89207500D02*
X126607258Y-89207500D01*
%TO.C,C12*%
X143400000Y-67059420D02*
X143400000Y-67340580D01*
X142380000Y-67059420D02*
X142380000Y-67340580D01*
%TO.C,C23*%
X66790580Y-77090000D02*
X66509420Y-77090000D01*
X66790580Y-78110000D02*
X66509420Y-78110000D01*
%TO.C,Q4*%
X124780000Y-72600000D02*
X124780000Y-73860000D01*
X121020000Y-79420000D02*
X124780000Y-79420000D01*
X124780000Y-79420000D02*
X124780000Y-78160000D01*
X118770000Y-72600000D02*
X124780000Y-72600000D01*
%TO.C,R13*%
X138922500Y-59632742D02*
X138922500Y-60107258D01*
X137877500Y-59632742D02*
X137877500Y-60107258D01*
%TO.C,J4*%
X56735000Y-55975000D02*
X51535000Y-55975000D01*
X56735000Y-96675000D02*
X54135000Y-96675000D01*
X56735000Y-96675000D02*
X56735000Y-55975000D01*
X51535000Y-99275000D02*
X51535000Y-55975000D01*
X56735000Y-99275000D02*
X55405000Y-99275000D01*
X54135000Y-99275000D02*
X51535000Y-99275000D01*
X56735000Y-97945000D02*
X56735000Y-99275000D01*
X54135000Y-96675000D02*
X54135000Y-99275000D01*
%TO.C,SW4*%
X103570000Y-117030000D02*
X108070000Y-117030000D01*
X109320000Y-114530000D02*
X109320000Y-113030000D01*
X102320000Y-113030000D02*
X102320000Y-114530000D01*
X108070000Y-110530000D02*
X103570000Y-110530000D01*
%TO.C,Q5*%
X107400000Y-67620000D02*
X108660000Y-67620000D01*
X107400000Y-73630000D02*
X107400000Y-67620000D01*
X114220000Y-67620000D02*
X112960000Y-67620000D01*
X114220000Y-71380000D02*
X114220000Y-67620000D01*
%TO.C,J5*%
X145080000Y-64640000D02*
X147080000Y-64640000D01*
X148980000Y-64640000D02*
X150880000Y-64640000D01*
X150880000Y-64640000D02*
X150880000Y-55240000D01*
X145080000Y-55240000D02*
X147080000Y-55240000D01*
X148980000Y-55240000D02*
X150880000Y-55240000D01*
%TO.C,SW12*%
X109250000Y-145740000D02*
X109250000Y-144240000D01*
X102250000Y-144240000D02*
X102250000Y-145740000D01*
X108000000Y-141740000D02*
X103500000Y-141740000D01*
X103500000Y-148240000D02*
X108000000Y-148240000D01*
%TO.C,SW15*%
X142980000Y-133920000D02*
X147480000Y-133920000D01*
X141730000Y-129920000D02*
X141730000Y-131420000D01*
X147480000Y-127420000D02*
X142980000Y-127420000D01*
X148730000Y-131420000D02*
X148730000Y-129920000D01*
%TO.C,R6*%
X82512500Y-97332742D02*
X82512500Y-97807258D01*
X81467500Y-97332742D02*
X81467500Y-97807258D01*
%TO.C,R15*%
X97217258Y-76487500D02*
X96742742Y-76487500D01*
X97217258Y-77532500D02*
X96742742Y-77532500D01*
%TO.C,U1*%
X70870000Y-80710000D02*
X70170000Y-80710000D01*
X70170000Y-67190000D02*
X68805000Y-67190000D01*
X70170000Y-80710000D02*
X70170000Y-80010000D01*
X70870000Y-66490000D02*
X70170000Y-66490000D01*
X83690000Y-80710000D02*
X84390000Y-80710000D01*
X84390000Y-66490000D02*
X84390000Y-67190000D01*
X70170000Y-66490000D02*
X70170000Y-67190000D01*
X83690000Y-66490000D02*
X84390000Y-66490000D01*
X84390000Y-80710000D02*
X84390000Y-80010000D01*
%TO.C,J1*%
X97620000Y-53790000D02*
X89940000Y-53790000D01*
X97620000Y-51130000D02*
X89940000Y-51130000D01*
X89940000Y-51130000D02*
X89940000Y-53790000D01*
X97620000Y-51130000D02*
X97620000Y-53790000D01*
X98890000Y-51130000D02*
X100220000Y-51130000D01*
X100220000Y-51130000D02*
X100220000Y-52460000D01*
%TO.C,SW9*%
X90230000Y-133920000D02*
X90230000Y-135420000D01*
X91480000Y-137920000D02*
X95980000Y-137920000D01*
X97230000Y-135420000D02*
X97230000Y-133920000D01*
X95980000Y-131420000D02*
X91480000Y-131420000D01*
%TO.C,C22*%
X92070580Y-57220000D02*
X91789420Y-57220000D01*
X92070580Y-56200000D02*
X91789420Y-56200000D01*
%TO.C,SW2*%
X78220000Y-113030000D02*
X78220000Y-114530000D01*
X79470000Y-117030000D02*
X83970000Y-117030000D01*
X85220000Y-114530000D02*
X85220000Y-113030000D01*
X83970000Y-110530000D02*
X79470000Y-110530000D01*
%TO.C,SW13*%
X130920000Y-124020000D02*
X135420000Y-124020000D01*
X135420000Y-117520000D02*
X130920000Y-117520000D01*
X136670000Y-121520000D02*
X136670000Y-120020000D01*
X129670000Y-120020000D02*
X129670000Y-121520000D01*
%TO.C,C4*%
X59460000Y-55489420D02*
X59460000Y-55770580D01*
X60480000Y-55489420D02*
X60480000Y-55770580D01*
%TO.C,SW1*%
X97260000Y-145740000D02*
X97260000Y-144240000D01*
X96010000Y-141740000D02*
X91510000Y-141740000D01*
X90260000Y-144240000D02*
X90260000Y-145740000D01*
X91510000Y-148240000D02*
X96010000Y-148240000D01*
%TO.C,J3*%
X78270000Y-51200000D02*
X78270000Y-49300000D01*
X68870000Y-55100000D02*
X68870000Y-53100000D01*
X78270000Y-55100000D02*
X78270000Y-53100000D01*
X68870000Y-51200000D02*
X68870000Y-49300000D01*
X78270000Y-49300000D02*
X68870000Y-49300000D01*
%TO.C,C3*%
X60760580Y-76040000D02*
X60479420Y-76040000D01*
X60760580Y-75020000D02*
X60479420Y-75020000D01*
%TO.C,D1*%
X133650000Y-64090000D02*
X135600000Y-64090000D01*
X133650000Y-69210000D02*
X131700000Y-69210000D01*
X133650000Y-69210000D02*
X135600000Y-69210000D01*
X133650000Y-64090000D02*
X130200000Y-64090000D01*
%TO.C,SW14*%
X124590000Y-131430000D02*
X124590000Y-129930000D01*
X123340000Y-127430000D02*
X118840000Y-127430000D01*
X117590000Y-129930000D02*
X117590000Y-131430000D01*
X118840000Y-133930000D02*
X123340000Y-133930000D01*
%TO.C,J8*%
X146410000Y-73010000D02*
X149070000Y-73010000D01*
X149070000Y-73010000D02*
X149070000Y-78150000D01*
X146410000Y-73010000D02*
X146410000Y-78150000D01*
X146410000Y-71740000D02*
X146410000Y-70410000D01*
X146410000Y-78150000D02*
X149070000Y-78150000D01*
X146410000Y-70410000D02*
X147740000Y-70410000D01*
%TO.C,R12*%
X127847500Y-58342742D02*
X127847500Y-58817258D01*
X128892500Y-58342742D02*
X128892500Y-58817258D01*
%TO.C,SW16*%
X135560000Y-137470000D02*
X131060000Y-137470000D01*
X131060000Y-143970000D02*
X135560000Y-143970000D01*
X129810000Y-139970000D02*
X129810000Y-141470000D01*
X136810000Y-141470000D02*
X136810000Y-139970000D01*
%TO.C,D2*%
X133620000Y-57320000D02*
X135570000Y-57320000D01*
X133620000Y-62440000D02*
X131670000Y-62440000D01*
X133620000Y-57320000D02*
X130170000Y-57320000D01*
X133620000Y-62440000D02*
X135570000Y-62440000D01*
%TO.C,U2*%
X66470000Y-87970000D02*
X69920000Y-87970000D01*
X66470000Y-87970000D02*
X64520000Y-87970000D01*
X66470000Y-82850000D02*
X64520000Y-82850000D01*
X66470000Y-82850000D02*
X68420000Y-82850000D01*
%TO.C,R7*%
X84892500Y-97342742D02*
X84892500Y-97817258D01*
X83847500Y-97342742D02*
X83847500Y-97817258D01*
%TO.C,C11*%
X109910000Y-91360580D02*
X109910000Y-91079420D01*
X108890000Y-91360580D02*
X108890000Y-91079420D01*
%TO.C,SW18*%
X131000000Y-133940000D02*
X135500000Y-133940000D01*
X135500000Y-127440000D02*
X131000000Y-127440000D01*
X129750000Y-129940000D02*
X129750000Y-131440000D01*
X136750000Y-131440000D02*
X136750000Y-129940000D01*
%TO.C,C1*%
X86650000Y-67550580D02*
X86650000Y-67269420D01*
X87670000Y-67550580D02*
X87670000Y-67269420D01*
%TO.C,U4*%
X88010000Y-60540000D02*
X86750000Y-60540000D01*
X81190000Y-60540000D02*
X82450000Y-60540000D01*
X81190000Y-56780000D02*
X81190000Y-60540000D01*
X88010000Y-54530000D02*
X88010000Y-60540000D01*
%TO.C,J11*%
X149460000Y-66320000D02*
X149460000Y-67650000D01*
X146860000Y-66320000D02*
X144260000Y-66320000D01*
X144260000Y-66320000D02*
X144260000Y-68980000D01*
X146860000Y-66320000D02*
X146860000Y-68980000D01*
X148130000Y-66320000D02*
X149460000Y-66320000D01*
X146860000Y-68980000D02*
X144260000Y-68980000D01*
%TO.C,R3*%
X74247500Y-97322742D02*
X74247500Y-97797258D01*
X75292500Y-97322742D02*
X75292500Y-97797258D01*
%TO.C,Q6*%
X98050000Y-71420000D02*
X92040000Y-71420000D01*
X95800000Y-64600000D02*
X92040000Y-64600000D01*
X92040000Y-64600000D02*
X92040000Y-65860000D01*
X92040000Y-71420000D02*
X92040000Y-70160000D01*
%TO.C,R8*%
X87282500Y-97352742D02*
X87282500Y-97827258D01*
X86237500Y-97352742D02*
X86237500Y-97827258D01*
%TO.C,SW5*%
X83920000Y-120960000D02*
X79420000Y-120960000D01*
X78170000Y-123460000D02*
X78170000Y-124960000D01*
X85170000Y-124960000D02*
X85170000Y-123460000D01*
X79420000Y-127460000D02*
X83920000Y-127460000D01*
%TO.C,SW6*%
X90150000Y-123450000D02*
X90150000Y-124950000D01*
X95900000Y-120950000D02*
X91400000Y-120950000D01*
X91400000Y-127450000D02*
X95900000Y-127450000D01*
X97150000Y-124950000D02*
X97150000Y-123450000D01*
%TO.C,R4*%
X76777500Y-97332742D02*
X76777500Y-97807258D01*
X77822500Y-97332742D02*
X77822500Y-97807258D01*
%TO.C,J9*%
X148525000Y-118740000D02*
X148525000Y-116080000D01*
X143325000Y-118740000D02*
X143325000Y-117410000D01*
X144655000Y-118740000D02*
X143325000Y-118740000D01*
X145925000Y-118740000D02*
X145925000Y-116080000D01*
X145925000Y-116080000D02*
X148525000Y-116080000D01*
X145925000Y-118740000D02*
X148525000Y-118740000D01*
%TO.C,R2*%
X72882500Y-97312742D02*
X72882500Y-97787258D01*
X71837500Y-97312742D02*
X71837500Y-97787258D01*
%TO.C,C16*%
X114679420Y-75610000D02*
X114960580Y-75610000D01*
X114679420Y-76630000D02*
X114960580Y-76630000D01*
%TO.C,SW7*%
X103430000Y-127450000D02*
X107930000Y-127450000D01*
X109180000Y-124950000D02*
X109180000Y-123450000D01*
X107930000Y-120950000D02*
X103430000Y-120950000D01*
X102180000Y-123450000D02*
X102180000Y-124950000D01*
%TO.C,C24*%
X84559420Y-84490000D02*
X84840580Y-84490000D01*
X84559420Y-83470000D02*
X84840580Y-83470000D01*
%TO.C,J10*%
X103955000Y-53780000D02*
X102625000Y-53780000D01*
X105225000Y-51120000D02*
X110365000Y-51120000D01*
X102625000Y-53780000D02*
X102625000Y-52450000D01*
X105225000Y-53780000D02*
X105225000Y-51120000D01*
X105225000Y-53780000D02*
X110365000Y-53780000D01*
X110365000Y-53780000D02*
X110365000Y-51120000D01*
D12*
%TO.C,U3*%
X69744000Y-119750498D02*
X69744000Y-122798498D01*
D13*
X67905000Y-132663298D02*
X67285000Y-132663298D01*
D12*
X69744000Y-130418498D02*
X69744000Y-133466498D01*
X71903000Y-122798498D02*
X71953800Y-130418498D01*
X53996000Y-133466498D02*
X53996000Y-119750498D01*
X65680000Y-116448498D02*
X65680000Y-119750498D01*
X69744000Y-122798498D02*
X71776000Y-122798498D01*
X58060000Y-119750498D02*
X58060000Y-116448498D01*
X71953800Y-130418498D02*
X69744000Y-130418498D01*
X58060000Y-116448498D02*
X65680000Y-116448498D01*
X66188000Y-138546498D02*
X57552000Y-138546498D01*
X66188000Y-138546498D02*
X66188000Y-133466498D01*
X57552000Y-138546498D02*
X57552000Y-133466498D01*
X53996000Y-119750498D02*
X58060000Y-119750498D01*
X57552000Y-133466498D02*
X53996000Y-133466498D01*
X65680000Y-119750498D02*
X69744000Y-119750498D01*
X69748000Y-133464532D02*
X66192000Y-133464532D01*
X67267500Y-135957247D02*
G75*
G03*
X56472500Y-135957247I-5397500J9348744D01*
G01*
X63666034Y-126608498D02*
G75*
G03*
X63666034Y-126608498I-1796034J0D01*
G01*
D11*
%TO.C,SW11*%
X84030000Y-141770000D02*
X79530000Y-141770000D01*
X79530000Y-148270000D02*
X84030000Y-148270000D01*
X78280000Y-144270000D02*
X78280000Y-145770000D01*
X85280000Y-145770000D02*
X85280000Y-144270000D01*
%TO.C,R16*%
X125037500Y-92592742D02*
X125037500Y-93067258D01*
X126082500Y-92592742D02*
X126082500Y-93067258D01*
%TO.C,SW10*%
X103510000Y-137850000D02*
X108010000Y-137850000D01*
X108010000Y-131350000D02*
X103510000Y-131350000D01*
X102260000Y-133850000D02*
X102260000Y-135350000D01*
X109260000Y-135350000D02*
X109260000Y-133850000D01*
%TO.C,R11*%
X129342500Y-64852742D02*
X129342500Y-65327258D01*
X128297500Y-64852742D02*
X128297500Y-65327258D01*
%TO.C,R1*%
X70602500Y-97312742D02*
X70602500Y-97787258D01*
X69557500Y-97312742D02*
X69557500Y-97787258D01*
%TD*%
M02*
