M48
; DRILL file {KiCad 6.0.11+dfsg-1} date Чт 20 июл 2023 16:39:34
; FORMAT={-:-/ absolute / inch / decimal}
; #@! TF.CreationDate,2023-07-20T16:39:34+03:00
; #@! TF.GenerationSoftware,Kicad,Pcbnew,6.0.11+dfsg-1
; #@! TF.FileFunction,Plated,1,2,PTH
FMAT,2
INCH
; #@! TA.AperFunction,Plated,PTH,ViaDrill
T1C0.0157
; #@! TA.AperFunction,Plated,PTH,ComponentDrill
T2C0.0236
; #@! TA.AperFunction,Plated,PTH,ComponentDrill
T3C0.0295
; #@! TA.AperFunction,Plated,PTH,ComponentDrill
T4C0.0315
; #@! TA.AperFunction,Plated,PTH,ComponentDrill
T5C0.0350
; #@! TA.AperFunction,Plated,PTH,ComponentDrill
T6C0.0354
; #@! TA.AperFunction,Plated,PTH,ComponentDrill
T7C0.0394
; #@! TA.AperFunction,Plated,PTH,ComponentDrill
T8C0.0433
; #@! TA.AperFunction,Plated,PTH,ComponentDrill
T9C0.0472
; #@! TA.AperFunction,Plated,PTH,ComponentDrill
T10C0.0550
%
G90
G05
T1
X2.2181Y-4.3846
X2.2795Y-2.6969
X2.3016Y-3.326
X2.3602Y-3.3657
X2.402Y-3.2839
X2.4465Y-3.2831
X2.4976Y-4.0067
X2.5512Y-3.1346
X2.5687Y-2.6581
X2.572Y-2.3791
X2.5744Y-2.4669
X2.5752Y-2.5102
X2.5768Y-2.552
X2.5839Y-3.2957
X2.5854Y-3.3732
X2.5886Y-3.9606
X2.5976Y-4.5063
X2.602Y-4.0209
X2.6063Y-3.1832
X2.6134Y-3.902
X2.6388Y-3.8041
X2.648Y-3.1016
X2.6602Y-4.5008
X2.661Y-2.3811
X2.6618Y-2.4232
X2.6622Y-2.4661
X2.6634Y-2.5102
X2.6638Y-2.5516
X2.6685Y-3.2913
X2.6949Y-3.0256
X2.6949Y-3.839
X2.6996Y-4.3646
X2.7591Y-3.8081
X2.7591Y-3.9543
X2.7598Y-3.2453
X2.7846Y-3.3677
X2.7862Y-2.3622
X2.7882Y-2.5638
X2.816Y-3.0603
X2.8189Y-2.6657
X2.8276Y-2.5378
X2.8394Y-2.8803
X2.8398Y-2.7106
X2.8469Y-3.0071
X2.8479Y-2.8032
X2.8484Y-2.7571
X2.8488Y-3.8081
X2.8488Y-3.9516
X2.8496Y-3.1039
X2.854Y-2.9625
X2.8545Y-2.9226
X2.861Y-2.315
X2.8614Y-2.4835
X2.8661Y-2.6559
X2.8705Y-3.0398
X2.8925Y-2.5358
X2.8968Y-2.8714
X2.8969Y-3.3591
X2.9146Y-2.3189
X2.9173Y-2.4724
X2.934Y-3.1398
X2.9437Y-3.8085
X2.9437Y-3.9488
X2.9547Y-2.1913
X2.9571Y-3.0429
X2.9594Y-3.3339
X2.9945Y-3.0724
X2.9949Y-3.2669
X3.0315Y-2.7992
X3.0419Y-3.8075
X3.0425Y-3.9512
X3.0642Y-2.8378
X3.0772Y-3.3598
X3.0909Y-3.7126
X3.1134Y-2.8382
X3.1413Y-3.8089
X3.1417Y-2.8063
X3.1618Y-2.7693
X3.1807Y-2.7323
X3.1953Y-2.6925
X3.2073Y-2.0433
X3.213Y-2.6543
X3.228Y-3.8089
X3.2317Y-2.1927
X3.2453Y-2.5311
X3.276Y-2.8402
X3.2787Y-3.1106
X3.2843Y-2.6557
X3.2846Y-2.7055
X3.2976Y-2.5606
X3.3217Y-3.8093
X3.3307Y-2.1843
X3.3307Y-2.4323
X3.3791Y-2.6445
X3.4035Y-2.3256
X3.4142Y-3.873
X3.4197Y-2.5142
X3.4209Y-2.2224
X3.4272Y-2.6016
X3.5004Y-3.7413
X3.5012Y-3.0244
X3.5028Y-3.0693
X3.5035Y-3.1547
X3.5043Y-3.1106
X3.5362Y-2.413
X3.5675Y-2.512
X3.5717Y-3.6772
X3.5732Y-2.2339
X3.5768Y-2.889
X3.6559Y-3.1008
X3.665Y-2.2366
X3.728Y-2.4102
X3.7685Y-3.2197
X3.8102Y-2.5843
X3.811Y-2.8331
X3.8941Y-2.8378
X3.902Y-3.6772
X3.9274Y-3.0679
X3.9374Y-3.3669
X3.9539Y-3.0213
X4.0094Y-3.3858
X4.0169Y-2.8421
X4.0224Y-3.4929
X4.0589Y-3.6297
X4.1098Y-2.9846
X4.115Y-2.7547
X4.1161Y-3.5571
X4.2492Y-3.4949
X4.2803Y-2.763
X4.3087Y-3.5606
X4.3123Y-3.6166
X4.365Y-3.1752
X4.3677Y-3.2465
X4.4205Y-4.2744
X4.4453Y-3.6425
X4.4622Y-2.8417
X4.4876Y-3.5321
X4.5154Y-3.4067
X4.524Y-3.4843
X4.5654Y-4.515
X4.5925Y-3.824
X4.6256Y-2.7362
X4.7549Y-3.6341
X4.7713Y-4.8535
X4.7866Y-2.9567
X4.7937Y-4.1933
X4.9106Y-2.4378
X4.9618Y-2.8681
X4.9874Y-4.2047
X5.0177Y-3.5378
X5.2006Y-2.649
X5.2297Y-5.1319
X5.2346Y-2.4354
X5.2348Y-2.3825
X5.2352Y-2.549
X5.2378Y-2.598
X5.2386Y-2.3354
X5.2411Y-2.2825
X5.2413Y-2.6929
X5.2463Y-2.649
X5.2492Y-2.1827
X5.2652Y-2.4089
X5.2709Y-2.3122
X5.274Y-2.3528
X5.2843Y-2.6921
X5.2848Y-2.5876
X5.285Y-2.5469
X5.2884Y-2.3825
X5.2907Y-2.649
X5.2917Y-2.1831
X5.3429Y-2.9028
X5.3866Y-2.4386
X5.387Y-2.7
X5.4268Y-2.1744
X5.4445Y-2.3902
X5.4484Y-2.8992
X5.4543Y-3.0705
X5.4587Y-3.111
X5.4917Y-3.2287
X5.5303Y-2.5516
X5.652Y-2.9693
T3
X4.2531Y-2.9937
X4.2531Y-3.0437
X4.2531Y-3.0937
T4
X2.4646Y-2.7827
X2.4646Y-2.9756
X3.5657Y-2.6448
X3.5657Y-2.7944
X4.1618Y-2.2619
X4.1618Y-2.4115
X5.1524Y-3.8898
X5.2028Y-3.4114
X5.302Y-3.8898
X5.3524Y-3.4114
T5
X2.3352Y-4.6352
X2.4352Y-4.6344
X2.5352Y-4.6352
X2.7858Y-5.0846
X2.7864Y-4.8852
X2.7864Y-4.9852
T6
X2.3104Y-5.2151
X2.3108Y-5.4096
X2.5608Y-5.2159
X2.5608Y-5.4104
T7
X2.0689Y-4.2793
X2.0689Y-4.3793
X2.0689Y-4.4793
X2.0813Y-2.2561
X2.0813Y-2.3561
X2.0813Y-2.4561
X2.0813Y-2.5561
X2.0813Y-2.6561
X2.0813Y-2.7561
X2.0813Y-2.8561
X2.0813Y-2.9561
X2.0813Y-3.0561
X2.0813Y-3.1561
X2.0813Y-3.2561
X2.0813Y-3.3561
X2.0813Y-3.4561
X2.0813Y-3.5561
X2.0813Y-3.6561
X2.0813Y-3.7561
X2.0813Y-3.8561
X2.1813Y-2.2561
X2.1813Y-2.3561
X2.1813Y-2.4561
X2.1813Y-2.5561
X2.1813Y-2.6561
X2.1813Y-2.7561
X2.1813Y-2.8561
X2.1813Y-2.9561
X2.1813Y-3.0561
X2.1813Y-3.1561
X2.1813Y-3.2561
X2.1813Y-3.3561
X2.1813Y-3.4561
X2.1813Y-3.5561
X2.1813Y-3.6561
X2.1813Y-3.7561
X2.1813Y-3.8561
X3.3404Y-2.0539
X3.4404Y-2.0539
X3.5933Y-2.0654
X3.6933Y-2.0654
X3.7933Y-2.0654
X3.8933Y-2.0654
X4.0927Y-2.065
X4.1927Y-2.065
X4.2927Y-2.065
X5.1642Y-2.0409
X5.2642Y-2.0409
X5.3642Y-2.0409
X5.4642Y-2.0409
X5.6427Y-3.7807
X5.6951Y-4.6224
X5.7319Y-2.6634
X5.7427Y-3.7807
X5.7951Y-4.6224
X5.8165Y-2.8244
X5.8165Y-2.9244
X5.8165Y-3.0244
X5.8319Y-2.6634
T8
X2.363Y-2.1024
X2.363Y-2.2795
X2.6189Y-2.1024
X2.6189Y-2.2795
X3.0874Y-4.8016
X3.0874Y-4.9787
X3.0886Y-5.2142
X3.0886Y-5.3913
X3.0894Y-4.3909
X3.0894Y-4.5681
X3.0917Y-5.6209
X3.0917Y-5.798
X3.3433Y-4.8016
X3.3433Y-4.9787
X3.3445Y-5.2142
X3.3445Y-5.3913
X3.3453Y-4.3909
X3.3453Y-4.5681
X3.3476Y-5.6209
X3.3476Y-5.798
X3.5591Y-4.8012
X3.5591Y-4.9783
X3.5622Y-5.2134
X3.5622Y-5.3906
X3.5634Y-5.6197
X3.5634Y-5.7969
X3.5638Y-4.3902
X3.5638Y-4.5673
X3.7815Y-2.6571
X3.815Y-4.8012
X3.815Y-4.9783
X3.8181Y-5.2134
X3.8181Y-5.3906
X3.8193Y-5.6197
X3.8193Y-5.7969
X3.8197Y-4.3902
X3.8197Y-4.5673
X4.0327Y-4.8012
X4.0327Y-4.9783
X4.0354Y-5.6197
X4.0354Y-5.7969
X4.0358Y-5.2106
X4.0358Y-5.3878
X4.0382Y-4.3909
X4.0382Y-4.5681
X4.1815Y-2.6571
X4.2886Y-4.8012
X4.2886Y-4.9783
X4.2913Y-5.6197
X4.2913Y-5.7969
X4.2917Y-5.2106
X4.2917Y-5.3878
X4.2941Y-4.3909
X4.2941Y-4.5681
X4.6394Y-5.0563
X4.6394Y-5.2335
X4.8496Y-3.6248
X4.8496Y-4.0248
X4.8953Y-5.0563
X4.8953Y-5.2335
X5.115Y-4.6661
X5.115Y-4.8433
X5.1181Y-5.0567
X5.1181Y-5.2339
X5.1205Y-5.4516
X5.1205Y-5.6287
X5.3709Y-4.6661
X5.3709Y-4.8433
X5.374Y-5.0567
X5.374Y-5.2339
X5.3764Y-5.4516
X5.3764Y-5.6287
X5.5898Y-5.0559
X5.5898Y-5.2331
X5.8457Y-5.0559
X5.8457Y-5.2331
T9
X4.4894Y-2.1835
X4.7894Y-2.1835
X5.6866Y-3.1579
X5.6866Y-3.4579
X5.6898Y-4.1067
X5.6898Y-4.4067
T10
X2.1858Y-4.7846
X2.1858Y-5.1846
X2.6858Y-4.7852
X2.6858Y-5.184
T2
G00X2.7264Y-2.065
M15
G01X2.7264Y-2.0413
M16
G05
G00X2.7264Y-2.2394
M15
G01X2.7264Y-2.1961
M16
G05
G00X3.0665Y-2.065
M15
G01X3.0665Y-2.0413
M16
G05
G00X3.0665Y-2.2394
M15
G01X3.0665Y-2.1961
M16
G05
G00X5.6417Y-2.1898
M15
G01X5.685Y-2.1898
M16
G05
G00X5.6417Y-2.5299
M15
G01X5.685Y-2.5299
M16
G05
G00X5.8161Y-2.1898
M15
G01X5.8398Y-2.1898
M16
G05
G00X5.8161Y-2.5299
M15
G01X5.8398Y-2.5299
M16
G05
T0
M30
