%TF.GenerationSoftware,KiCad,Pcbnew,6.0.11+dfsg-1*%
%TF.CreationDate,2023-07-20T16:39:38+03:00*%
%TF.ProjectId,usb_display,7573625f-6469-4737-906c-61792e6b6963,rev?*%
%TF.SameCoordinates,Original*%
%TF.FileFunction,Paste,Top*%
%TF.FilePolarity,Positive*%
%FSLAX46Y46*%
G04 Gerber Fmt 4.6, Leading zero omitted, Abs format (unit mm)*
G04 Created by KiCad (PCBNEW 6.0.11+dfsg-1) date 2023-07-20 16:39:38*
%MOMM*%
%LPD*%
G01*
G04 APERTURE LIST*
G04 Aperture macros list*
%AMRoundRect*
0 Rectangle with rounded corners*
0 $1 Rounding radius*
0 $2 $3 $4 $5 $6 $7 $8 $9 X,Y pos of 4 corners*
0 Add a 4 corners polygon primitive as box body*
4,1,4,$2,$3,$4,$5,$6,$7,$8,$9,$2,$3,0*
0 Add four circle primitives for the rounded corners*
1,1,$1+$1,$2,$3*
1,1,$1+$1,$4,$5*
1,1,$1+$1,$6,$7*
1,1,$1+$1,$8,$9*
0 Add four rect primitives between the rounded corners*
20,1,$1+$1,$2,$3,$4,$5,0*
20,1,$1+$1,$4,$5,$6,$7,0*
20,1,$1+$1,$6,$7,$8,$9,0*
20,1,$1+$1,$8,$9,$2,$3,0*%
G04 Aperture macros list end*
%ADD10RoundRect,0.225000X-0.250000X0.225000X-0.250000X-0.225000X0.250000X-0.225000X0.250000X0.225000X0*%
%ADD11RoundRect,0.225000X-0.225000X-0.250000X0.225000X-0.250000X0.225000X0.250000X-0.225000X0.250000X0*%
%ADD12RoundRect,0.200000X-0.275000X0.200000X-0.275000X-0.200000X0.275000X-0.200000X0.275000X0.200000X0*%
%ADD13RoundRect,0.225000X0.225000X0.250000X-0.225000X0.250000X-0.225000X-0.250000X0.225000X-0.250000X0*%
%ADD14RoundRect,0.200000X-0.200000X-0.275000X0.200000X-0.275000X0.200000X0.275000X-0.200000X0.275000X0*%
%ADD15RoundRect,0.200000X0.200000X0.275000X-0.200000X0.275000X-0.200000X-0.275000X0.200000X-0.275000X0*%
%ADD16R,1.500000X2.000000*%
%ADD17R,3.800000X2.000000*%
%ADD18R,1.450000X0.600000*%
%ADD19R,1.450000X0.300000*%
%ADD20RoundRect,0.075000X-0.725000X-0.075000X0.725000X-0.075000X0.725000X0.075000X-0.725000X0.075000X0*%
%ADD21RoundRect,0.075000X-0.075000X-0.725000X0.075000X-0.725000X0.075000X0.725000X-0.075000X0.725000X0*%
%ADD22R,0.600000X1.450000*%
%ADD23R,0.300000X1.450000*%
%ADD24RoundRect,0.150000X-0.825000X-0.150000X0.825000X-0.150000X0.825000X0.150000X-0.825000X0.150000X0*%
%ADD25RoundRect,0.150000X0.825000X0.150000X-0.825000X0.150000X-0.825000X-0.150000X0.825000X-0.150000X0*%
%ADD26RoundRect,0.225000X0.250000X-0.225000X0.250000X0.225000X-0.250000X0.225000X-0.250000X-0.225000X0*%
G04 APERTURE END LIST*
D10*
%TO.C,C26*%
X85430000Y-80905000D03*
X85430000Y-82455000D03*
%TD*%
D11*
%TO.C,C18*%
X133015000Y-96260000D03*
X134565000Y-96260000D03*
%TD*%
D12*
%TO.C,R5*%
X79790000Y-96745000D03*
X79790000Y-98395000D03*
%TD*%
D13*
%TO.C,C2*%
X61385000Y-70640000D03*
X59835000Y-70640000D03*
%TD*%
D10*
%TO.C,C14*%
X138050000Y-53835000D03*
X138050000Y-55385000D03*
%TD*%
D14*
%TO.C,R17*%
X125545000Y-89730000D03*
X127195000Y-89730000D03*
%TD*%
D10*
%TO.C,C12*%
X142890000Y-66425000D03*
X142890000Y-67975000D03*
%TD*%
D15*
%TO.C,R15*%
X102045000Y-76630000D03*
X100395000Y-76630000D03*
%TD*%
D13*
%TO.C,C23*%
X67425000Y-77600000D03*
X65875000Y-77600000D03*
%TD*%
D12*
%TO.C,R13*%
X138400000Y-59045000D03*
X138400000Y-60695000D03*
%TD*%
D14*
%TO.C,R29*%
X104395000Y-75930000D03*
X106045000Y-75930000D03*
%TD*%
D16*
%TO.C,Q5*%
X108510000Y-72680000D03*
X110810000Y-72680000D03*
X113110000Y-72680000D03*
D17*
X110810000Y-66380000D03*
%TD*%
D18*
%TO.C,J5*%
X142935000Y-63190000D03*
X142935000Y-62390000D03*
D19*
X142935000Y-61190000D03*
X142935000Y-60190000D03*
X142935000Y-59690000D03*
X142935000Y-58690000D03*
D18*
X142935000Y-57490000D03*
X142935000Y-56690000D03*
X142935000Y-56690000D03*
X142935000Y-57490000D03*
D19*
X142935000Y-58190000D03*
X142935000Y-59190000D03*
X142935000Y-60690000D03*
X142935000Y-61690000D03*
D18*
X142935000Y-62390000D03*
X142935000Y-63190000D03*
%TD*%
D15*
%TO.C,R27*%
X91305000Y-61250000D03*
X89655000Y-61250000D03*
%TD*%
D12*
%TO.C,R6*%
X81990000Y-96745000D03*
X81990000Y-98395000D03*
%TD*%
D20*
%TO.C,U1*%
X69605000Y-67600000D03*
X69605000Y-68100000D03*
X69605000Y-68600000D03*
X69605000Y-69100000D03*
X69605000Y-69600000D03*
X69605000Y-70100000D03*
X69605000Y-70600000D03*
X69605000Y-71100000D03*
X69605000Y-71600000D03*
X69605000Y-72100000D03*
X69605000Y-72600000D03*
X69605000Y-73100000D03*
X69605000Y-73600000D03*
X69605000Y-74100000D03*
X69605000Y-74600000D03*
X69605000Y-75100000D03*
X69605000Y-75600000D03*
X69605000Y-76100000D03*
X69605000Y-76600000D03*
X69605000Y-77100000D03*
X69605000Y-77600000D03*
X69605000Y-78100000D03*
X69605000Y-78600000D03*
X69605000Y-79100000D03*
X69605000Y-79600000D03*
D21*
X71280000Y-81275000D03*
X71780000Y-81275000D03*
X72280000Y-81275000D03*
X72780000Y-81275000D03*
X73280000Y-81275000D03*
X73780000Y-81275000D03*
X74280000Y-81275000D03*
X74780000Y-81275000D03*
X75280000Y-81275000D03*
X75780000Y-81275000D03*
X76280000Y-81275000D03*
X76780000Y-81275000D03*
X77280000Y-81275000D03*
X77780000Y-81275000D03*
X78280000Y-81275000D03*
X78780000Y-81275000D03*
X79280000Y-81275000D03*
X79780000Y-81275000D03*
X80280000Y-81275000D03*
X80780000Y-81275000D03*
X81280000Y-81275000D03*
X81780000Y-81275000D03*
X82280000Y-81275000D03*
X82780000Y-81275000D03*
X83280000Y-81275000D03*
D20*
X84955000Y-79600000D03*
X84955000Y-79100000D03*
X84955000Y-78600000D03*
X84955000Y-78100000D03*
X84955000Y-77600000D03*
X84955000Y-77100000D03*
X84955000Y-76600000D03*
X84955000Y-76100000D03*
X84955000Y-75600000D03*
X84955000Y-75100000D03*
X84955000Y-74600000D03*
X84955000Y-74100000D03*
X84955000Y-73600000D03*
X84955000Y-73100000D03*
X84955000Y-72600000D03*
X84955000Y-72100000D03*
X84955000Y-71600000D03*
X84955000Y-71100000D03*
X84955000Y-70600000D03*
X84955000Y-70100000D03*
X84955000Y-69600000D03*
X84955000Y-69100000D03*
X84955000Y-68600000D03*
X84955000Y-68100000D03*
X84955000Y-67600000D03*
D21*
X83280000Y-65925000D03*
X82780000Y-65925000D03*
X82280000Y-65925000D03*
X81780000Y-65925000D03*
X81280000Y-65925000D03*
X80780000Y-65925000D03*
X80280000Y-65925000D03*
X79780000Y-65925000D03*
X79280000Y-65925000D03*
X78780000Y-65925000D03*
X78280000Y-65925000D03*
X77780000Y-65925000D03*
X77280000Y-65925000D03*
X76780000Y-65925000D03*
X76280000Y-65925000D03*
X75780000Y-65925000D03*
X75280000Y-65925000D03*
X74780000Y-65925000D03*
X74280000Y-65925000D03*
X73780000Y-65925000D03*
X73280000Y-65925000D03*
X72780000Y-65925000D03*
X72280000Y-65925000D03*
X71780000Y-65925000D03*
X71280000Y-65925000D03*
%TD*%
D13*
%TO.C,C22*%
X92705000Y-56710000D03*
X91155000Y-56710000D03*
%TD*%
D11*
%TO.C,C27*%
X67280000Y-108660000D03*
X68830000Y-108660000D03*
%TD*%
D10*
%TO.C,C4*%
X59970000Y-54855000D03*
X59970000Y-56405000D03*
%TD*%
D22*
%TO.C,J3*%
X76820000Y-57245000D03*
X76020000Y-57245000D03*
D23*
X74820000Y-57245000D03*
X73820000Y-57245000D03*
X73320000Y-57245000D03*
X72320000Y-57245000D03*
D22*
X71120000Y-57245000D03*
X70320000Y-57245000D03*
X70320000Y-57245000D03*
X71120000Y-57245000D03*
D23*
X71820000Y-57245000D03*
X72820000Y-57245000D03*
X74320000Y-57245000D03*
X75320000Y-57245000D03*
D22*
X76020000Y-57245000D03*
X76820000Y-57245000D03*
%TD*%
D13*
%TO.C,C3*%
X61395000Y-75530000D03*
X59845000Y-75530000D03*
%TD*%
D24*
%TO.C,D1*%
X131175000Y-64745000D03*
X131175000Y-66015000D03*
X131175000Y-67285000D03*
X131175000Y-68555000D03*
X136125000Y-68555000D03*
X136125000Y-67285000D03*
X136125000Y-66015000D03*
X136125000Y-64745000D03*
%TD*%
D11*
%TO.C,C28*%
X66925000Y-111110000D03*
X68475000Y-111110000D03*
%TD*%
D12*
%TO.C,R12*%
X128370000Y-57755000D03*
X128370000Y-59405000D03*
%TD*%
D24*
%TO.C,D2*%
X131145000Y-57975000D03*
X131145000Y-59245000D03*
X131145000Y-60515000D03*
X131145000Y-61785000D03*
X136095000Y-61785000D03*
X136095000Y-60515000D03*
X136095000Y-59245000D03*
X136095000Y-57975000D03*
%TD*%
D11*
%TO.C,C29*%
X66035000Y-114540000D03*
X67585000Y-114540000D03*
%TD*%
D25*
%TO.C,U2*%
X68945000Y-87315000D03*
X68945000Y-86045000D03*
X68945000Y-84775000D03*
X68945000Y-83505000D03*
X63995000Y-83505000D03*
X63995000Y-84775000D03*
X63995000Y-86045000D03*
X63995000Y-87315000D03*
%TD*%
D12*
%TO.C,R7*%
X84370000Y-96755000D03*
X84370000Y-98405000D03*
%TD*%
D26*
%TO.C,C11*%
X109400000Y-91995000D03*
X109400000Y-90445000D03*
%TD*%
%TO.C,C1*%
X87160000Y-68185000D03*
X87160000Y-66635000D03*
%TD*%
D16*
%TO.C,U4*%
X86900000Y-55480000D03*
X84600000Y-55480000D03*
X82300000Y-55480000D03*
D17*
X84600000Y-61780000D03*
%TD*%
D12*
%TO.C,R3*%
X74770000Y-96735000D03*
X74770000Y-98385000D03*
%TD*%
%TO.C,R8*%
X86760000Y-96765000D03*
X86760000Y-98415000D03*
%TD*%
%TO.C,R4*%
X77300000Y-96745000D03*
X77300000Y-98395000D03*
%TD*%
%TO.C,R2*%
X72360000Y-96725000D03*
X72360000Y-98375000D03*
%TD*%
D11*
%TO.C,C16*%
X93975000Y-81870000D03*
X95525000Y-81870000D03*
%TD*%
%TO.C,C24*%
X83925000Y-83980000D03*
X85475000Y-83980000D03*
%TD*%
D14*
%TO.C,R28*%
X92935000Y-61240000D03*
X94585000Y-61240000D03*
%TD*%
D12*
%TO.C,R16*%
X125560000Y-92005000D03*
X125560000Y-93655000D03*
%TD*%
%TO.C,R11*%
X128820000Y-64265000D03*
X128820000Y-65915000D03*
%TD*%
%TO.C,R1*%
X70080000Y-96725000D03*
X70080000Y-98375000D03*
%TD*%
M02*
